<?xml version="1.0" encoding="UTF-8" standalone="no"?>
<!-- Created with Inkscape (http://www.inkscape.org/) -->

<svg
   xmlns:dc="http://purl.org/dc/elements/1.1/"
   xmlns:cc="http://creativecommons.org/ns#"
   xmlns:rdf="http://www.w3.org/1999/02/22-rdf-syntax-ns#"
   xmlns:svg="http://www.w3.org/2000/svg"
   xmlns="http://www.w3.org/2000/svg"
   xmlns:sodipodi="http://sodipodi.sourceforge.net/DTD/sodipodi-0.dtd"
   xmlns:inkscape="http://www.inkscape.org/namespaces/inkscape"
   width="200"
   height="100"
   viewBox="0 0 52.916665 26.458334"
   version="1.1"
   id="svg4158"
   sodipodi:docname="addresslogo.svg"
   inkscape:version="0.92.3 (2405546, 2018-03-11)">
  <defs
     id="defs4152" />
  <sodipodi:namedview
     id="base"
     pagecolor="#ffffff"
     bordercolor="#666666"
     borderopacity="1.0"
     inkscape:pageopacity="0.0"
     inkscape:pageshadow="2"
     inkscape:zoom="1.979899"
     inkscape:cx="109.07126"
     inkscape:cy="34.822972"
     inkscape:document-units="mm"
     inkscape:current-layer="layer1"
     showgrid="false"
     inkscape:snap-bbox="false"
     inkscape:snap-global="false"
     inkscape:window-width="1366"
     inkscape:window-height="705"
     inkscape:window-x="-8"
     inkscape:window-y="310"
     inkscape:window-maximized="1"
     units="px" />
  <metadata
     id="metadata4155">
    <rdf:RDF>
      <cc:Work
         rdf:about="">
        <dc:format>image/svg+xml</dc:format>
        <dc:type
           rdf:resource="http://purl.org/dc/dcmitype/StillImage" />
        <dc:title></dc:title>
      </cc:Work>
    </rdf:RDF>
  </metadata>
  <g
     inkscape:label="Layer 1"
     inkscape:groupmode="layer"
     id="layer1"
     transform="translate(0,-270.54165)">
    <path
       style="color:#000000;font-style:normal;font-variant:normal;font-weight:normal;font-stretch:normal;font-size:medium;line-height:normal;font-family:sans-serif;font-variant-ligatures:normal;font-variant-position:normal;font-variant-caps:normal;font-variant-numeric:normal;font-variant-alternates:normal;font-feature-settings:normal;text-indent:0;text-align:start;text-decoration:none;text-decoration-line:none;text-decoration-style:solid;text-decoration-color:#000000;letter-spacing:normal;word-spacing:normal;text-transform:none;writing-mode:lr-tb;direction:ltr;text-orientation:mixed;dominant-baseline:auto;baseline-shift:baseline;text-anchor:start;white-space:normal;shape-padding:0;clip-rule:nonzero;display:inline;overflow:visible;visibility:visible;opacity:1;isolation:auto;mix-blend-mode:normal;color-interpolation:sRGB;color-interpolation-filters:linearRGB;solid-color:#000000;solid-opacity:1;vector-effect:none;fill:#000000;fill-opacity:1;fill-rule:nonzero;stroke:none;stroke-width:2.07516336;stroke-linecap:square;stroke-linejoin:miter;stroke-miterlimit:4;stroke-dasharray:none;stroke-dashoffset:0;stroke-opacity:1;color-rendering:auto;image-rendering:auto;shape-rendering:auto;text-rendering:auto;enable-background:accumulate"
       d="m 21.037922,271.10638 c -2.037086,-0.009 -3.898924,0.42174 -5.606763,0.90997 -1.78826,0.51122 -3.439911,1.08645 -4.881267,1.35395 -0.7330164,0.13603 -1.397883,0.19304 -2.0120514,0.14626 l -0.8974612,-0.0685 -4.8374925,18.05392 v 5.55615 l 0.9000087,0.0919 c 1.1198271,0.11472 2.2725826,-0.0193 3.4071125,-0.27827 2.2180437,-0.50636 4.3770029,-1.45813 6.5310899,-2.21782 2.051847,-0.72364 4.085293,-1.28022 6.182881,-1.25818 0.07102,6.3e-4 0.1381,0.003 0.201373,0.004 h 8.25e-4 0.0014 c 1.307167,0.0368 2.677378,0.29504 4.193534,0.92085 l 1.481212,0.61133 1.481104,-0.61133 c 1.516143,-0.62581 2.886475,-0.88403 4.193629,-0.92085 h 0.0013 6.36e-4 c 0.06331,-0.001 0.13028,-0.003 0.201372,-0.004 2.097586,-0.0221 4.131033,0.53454 6.182878,1.25818 2.154095,0.75969 4.313046,1.71146 6.531089,2.21782 1.13453,0.25901 2.287161,0.39297 3.406999,0.27827 l 0.900121,-0.0919 v -5.55615 l -4.837492,-18.05392 -0.897456,0.0685 c -0.614182,0.0468 -1.279042,-0.0108 -2.012058,-0.14626 -1.441385,-0.2675 -3.093151,-0.84273 -4.88142,-1.35395 -1.707829,-0.48823 -3.569544,-0.91915 -5.60663,-0.90997 h -0.0013 -6.35e-4 c -0.06169,4.8e-4 -0.127304,9.6e-4 -0.197273,0.003 -1.27125,0.0237 -2.616919,0.2254 -4.023535,0.67894 l -0.441423,0.14232 -0.441436,-0.14232 c -1.406616,-0.45354 -2.752285,-0.65521 -4.023534,-0.67894 -0.06994,-10e-4 -0.135678,-0.003 -0.197328,-0.003 h -1.21e-4 -8.26e-4 z m 9.412815,1.01222 v 1.2e-4 l 1.08e-4,1.3e-4 h 0.0027 c 1.694517,-0.008 3.326842,0.36048 4.966149,0.83642 1.716135,0.49827 3.424424,1.11853 5.188369,1.45066 0.5924,0.11147 1.191931,0.16619 1.79111,0.18574 l 3.73355,15.32922 c -0.506116,-0.025 -1.031361,-0.0855 -1.601183,-0.21319 -1.80591,-0.40487 -3.88603,-1.28119 -6.123826,-2.05535 -2.129946,-0.73687 -4.440836,-1.38333 -6.952016,-1.35836 h -6.36e-4 -0.0013 c -0.07698,6.4e-4 -0.158148,0.003 -0.243649,0.004 l 0.0014,-4.6e-4 c -1.129267,0.0308 -2.305275,0.20905 -3.519908,0.56303 l -0.351566,-14.28134 c 1.049179,-0.30252 2.019702,-0.44143 2.946217,-0.45915 h 0.0013 0.0013 c 0.05033,-10e-4 0.10444,-10e-4 0.162356,-0.003 z m -9.497003,1.2e-4 c 0.0579,4.8e-4 0.112151,8.3e-4 0.162464,10e-4 h 10e-4 0.0012 c 0.926515,0.0177 1.897039,0.15663 2.94623,0.45916 l -0.351593,14.28132 c -1.214632,-0.35397 -2.39064,-0.53222 -3.519908,-0.56303 l 0.0014,4.6e-4 c -0.0855,-0.003 -0.166685,-0.004 -0.243649,-0.004 h -0.0013 -8.93e-4 c -2.511184,-0.025 -4.822072,0.62148 -6.952032,1.35833 -2.237784,0.77417 -4.3180228,1.65051 -6.1239319,2.05536 -0.5698246,0.12771 -1.0950726,0.18822 -1.6011872,0.2132 L 9.0051995,274.5912 c 0.5991693,-0.0195 1.1985845,-0.0743 1.7909875,-0.18575 1.763951,-0.33212 3.472355,-0.95238 5.188487,-1.45065 1.639301,-0.47594 3.271634,-0.84431 4.96615,-0.83643 h 0.0027 z m -0.130415,1.31609 c -2.109751,-0.0108 -4.040251,0.44988 -5.812547,0.97285 -1.856706,0.54788 -3.573453,1.16484 -5.0701388,1.45146 -0.025177,0.004 -0.050015,0.009 -0.075043,0.0141 l -0.2714392,1.1968 c 0.1982011,-0.0265 0.3958841,-0.0579 0.592788,-0.0962 1.832661,-0.35623 3.609191,-1.02228 5.391835,-1.55683 1.70198,-0.51037 3.395383,-0.90506 5.151319,-0.89538 h 0.0027 c 0.06007,4.8e-4 0.11621,10e-4 0.168376,0.003 h 0.001 0.0011 c 0.626818,0.0135 1.272535,0.0816 1.946621,0.21782 l 0.04722,-1.13787 c -0.636694,-0.10079 -1.259656,-0.15426 -1.867073,-0.1664 -0.07238,-10e-4 -0.140467,-0.003 -0.204268,-0.003 h -1.21e-4 -0.001 z m 9.755574,0 c -0.06386,4.7e-4 -0.131768,10e-4 -0.204267,0.003 -0.607404,0.0122 -1.23038,0.0656 -1.867073,0.16642 l 0.04721,1.13786 c 0.674087,-0.13621 1.319803,-0.20498 1.946621,-0.21783 h 0.0013 0.0013 c 0.05208,-0.001 0.108228,-0.001 0.168254,-0.003 h 0.0027 c 1.755936,-0.009 3.449343,0.38502 5.151327,0.89538 1.782642,0.53454 3.559168,1.20059 5.391825,1.55684 0.196907,0.0383 0.394708,0.0697 0.592901,0.0962 l -0.271436,-1.19682 c -0.02503,-0.004 -0.04992,-0.009 -0.07508,-0.0141 -1.496675,-0.2866 -3.213432,-0.90358 -5.070129,-1.45145 -1.772305,-0.52297 -3.702922,-0.98412 -5.812656,-0.97285 h -0.0013 z m -9.969691,2.96035 c -2.202184,-0.0141 -4.219974,0.48697 -6.074143,1.05588 -1.943752,0.59639 -3.74321,1.26889 -5.3104261,1.58081 -0.026367,0.005 -0.052423,0.009 -0.078628,0.0152 l -0.2969148,1.30913 c 0.2076197,-0.0288 0.4148998,-0.0631 0.6212749,-0.10485 1.920357,-0.38824 3.783682,-1.11522 5.650999,-1.69787 1.78168,-0.55594 3.552686,-0.9853 5.386848,-0.9732 h 0.0027 c 0.06264,6.1e-4 0.121486,10e-4 0.175911,0.003 h 0.001 0.0012 c 0.654754,0.0146 1.329056,0.0902 2.033014,0.23948 l 0.05168,-1.24128 c -0.664481,-0.11039 -1.314798,-0.1692 -1.948826,-0.18296 -0.07562,-0.001 -0.146582,-0.003 -0.213196,-0.003 h -1.09e-4 -10e-4 z m 10.183807,0 c -0.06656,7.1e-4 -0.137572,0.001 -0.213183,0.003 -0.634028,0.0138 -1.284344,0.0725 -1.948825,0.18296 l 0.05154,1.24128 c 0.703958,-0.14929 1.378382,-0.2249 2.033122,-0.23948 h 0.0013 0.0013 c 0.05452,-10e-4 0.113099,-0.003 0.17579,-0.003 h 0.0027 c 1.834171,-0.0122 3.605286,0.41726 5.386967,0.9732 1.867317,0.58265 3.730642,1.30965 5.651004,1.69789 0.206378,0.0417 0.413662,0.0759 0.621271,0.10485 l -0.296911,-1.30915 c -0.02625,-0.005 -0.05235,-0.009 -0.0786,-0.0152 -1.567226,-0.31191 -3.36667,-0.98442 -5.310423,-1.58081 -1.85418,-0.5689 -3.872082,-1.06997 -6.074257,-1.05587 h -0.0013 z m -10.632886,3.23248 c -2.219654,0.0168 -4.261917,0.54848 -6.145128,1.15037 -2.039339,0.65181 -3.929858,1.38772 -5.5745693,1.72857 -0.027679,0.005 -0.055048,0.0108 -0.082565,0.0165 l -0.3260972,1.43803 c 0.2179758,-0.0315 0.4356283,-0.069 0.6524257,-0.11459 2.0168548,-0.42492 3.9759178,-1.22172 5.9363348,-1.85943 1.869199,-0.60804 3.72539,-1.07695 5.645094,-1.06202 l 0.0027,1.2e-4 c 0.06561,7.1e-4 0.127033,0.001 0.184015,0.003 h 0.0012 0.0011 c 0.685274,0.0166 1.390909,0.1 2.127497,0.26425 l 0.05655,-1.35951 c -0.694812,-0.12135 -1.374783,-0.18619 -2.03787,-0.20183 -0.07901,-0.003 -0.153373,-0.003 -0.223045,-0.004 h -1.08e-4 -8.93e-4 -0.0011 c -0.07197,-4.4e-4 -0.143795,-4.4e-4 -0.215402,0 z m 10.8667,0 c -0.06967,7.1e-4 -0.143971,0.001 -0.223045,0.004 -0.663088,0.0157 -1.343059,0.0805 -2.037871,0.20185 l 0.05655,1.35951 c 0.736602,-0.16427 1.442223,-0.24768 2.127511,-0.26426 h 0.0013 0.0013 c 0.05695,-0.001 0.118375,-0.003 0.184002,-0.003 l 0.0027,-1.2e-4 c 1.919686,-0.015 3.776003,0.45397 5.6452,1.06201 1.96042,0.63771 3.919487,1.4345 5.936335,1.85942 0.216794,0.0457 0.434333,0.0831 0.652305,0.11459 l -0.326092,-1.43802 c -0.02746,-0.005 -0.05479,-0.0108 -0.08239,-0.0165 -1.644718,-0.34085 -3.535236,-1.07676 -5.574581,-1.72856 -1.943955,-0.62133 -4.057424,-1.16779 -6.360508,-1.15037 h -0.0013 -6.36e-4 z m -11.133862,3.54353 c -2.32645,0.0164 -4.470298,0.59892 -6.449332,1.25912 -2.14479,0.71548 -4.1360107,1.52439 -5.8662737,1.89855 -0.029127,0.007 -0.057902,0.0122 -0.086853,0.0181 l -0.3599104,1.58683 c 0.2294195,-0.0346 0.4585997,-0.0758 0.6869342,-0.12595 2.1235469,-0.46724 4.1886279,-1.34451 6.2518929,-2.04564 1.96575,-0.668 3.915667,-1.18233 5.929268,-1.16404 h 0.0027 c 0.06886,6.4e-4 0.133121,10e-4 0.192931,0.003 h 0.0014 0.0013 c 0.718798,0.0189 1.458972,0.11148 2.231383,0.2931 l 0.0621,-1.49546 c -0.728051,-0.13407 -1.440559,-0.20592 -2.135506,-0.22374 -0.08293,-0.003 -0.160868,-0.003 -0.233908,-0.004 l -10e-4,-1.2e-4 h -3.66e-4 -0.0011 c -0.07549,-7e-4 -0.15064,-7e-4 -0.225696,-2.1e-4 z m 11.618373,0 c -0.07495,-4.5e-4 -0.150194,-4.5e-4 -0.225589,2.3e-4 h -0.0013 -4.6e-4 l -0.0013,1.1e-4 c -0.07305,8.9e-4 -0.150884,10e-4 -0.2338,0.004 -0.694947,0.0179 -1.407455,0.0897 -2.135493,0.22373 l 0.0621,1.49545 c 0.772412,-0.18154 1.512463,-0.27419 2.231261,-0.2931 h 0.0013 0.0013 c 0.0598,-10e-4 0.124192,-0.003 0.193039,-0.003 h 0.0027 c 2.0136,-0.0183 3.96363,0.49603 5.92938,1.16403 2.063264,0.70113 4.128354,1.5784 6.251901,2.04564 0.228334,0.0502 0.457399,0.0913 0.686816,0.12595 l -0.359777,-1.58685 c -0.02895,-0.005 -0.05777,-0.0122 -0.08685,-0.0181 -1.730272,-0.37416 -3.721483,-1.18307 -5.866283,-1.89856 -1.978995,-0.66018 -4.122915,-1.24269 -6.449323,-1.25911 z"
       id="rect3824"
       inkscape:connector-curvature="0"
       sodipodi:nodetypes="ccccccccccccccccccccccsccccccccccccccccccccccccccccccccccccccccccccccccccccsccccsccccscccccccccccccccccccccccccccccccsccccscccccccccccccccccccccccccccccccsccccscccccccccccccccccccccccccccccccccccccccscccccccccccccccccccccccccccccccccccccscc" />
    <g
       aria-label="Address Book"
       style="font-style:normal;font-weight:normal;font-size:10.08580399px;line-height:1.25;font-family:sans-serif;letter-spacing:0px;word-spacing:0px;fill:#ffffff;fill-opacity:1;stroke:none;stroke-width:0.25214508"
       id="text4783"
       transform="matrix(0.22408962,0,0,0.22408962,-76.481028,258.0076)">
      <path
         d="m 376.39107,169.7946 -9.69525,0.46872 -0.15312,-3.16728 2.29688,-0.11104 -0.58722,-1.61954 -4.95643,0.23963 -0.42824,1.66863 1.88586,-0.0912 0.15312,3.16728 -7.68851,0.37171 -0.15312,-3.16728 1.64408,-0.0795 2.75085,-10.7718 -0.99129,0.0479 -0.15078,-3.11892 9.28423,-0.44885 4.94338,13.52603 1.69244,-0.0818 z m -12.34083,-7.13409 3.16728,-0.15312 -1.84821,-5.14524 z"
         style="font-style:normal;font-variant:normal;font-weight:normal;font-stretch:normal;font-size:24.20593071px;font-family:'ChunkFive Ex';-inkscape-font-specification:'ChunkFive Ex, Normal';font-variant-ligatures:normal;font-variant-caps:normal;font-variant-numeric:normal;font-feature-settings:normal;text-align:start;letter-spacing:2.33959174px;writing-mode:lr-tb;text-anchor:start;fill:#ffffff;stroke-width:0.25214508"
         id="path4801"
         inkscape:connector-curvature="0" />
      <path
         d="m 382.68254,151.33319 -1.05695,0.35024 -0.98983,-2.98704 5.72133,-1.8959 4.72072,14.24589 1.1029,-0.36548 0.98983,2.98704 -5.37667,1.78169 -0.67234,-0.72072 q -0.0768,0.15296 -0.26865,0.42053 -0.17647,0.23698 -0.4832,0.54263 -0.31433,0.28266 -0.75879,0.55744 -0.43683,0.29776 -1.03424,0.49573 -1.21779,0.40354 -2.36571,0.24842 -1.15553,-0.17809 -2.11895,-0.77685 -0.97104,-0.62174 -1.72713,-1.5952 -0.73311,-0.98109 -1.12904,-2.1759 -0.44161,-1.33268 -0.36291,-2.55728 0.0711,-1.24757 0.5551,-2.24947 0.48401,-1.0019 1.312,-1.73528 0.82799,-0.73338 1.88494,-1.08363 1.2178,-0.40354 1.99835,-0.27969 0.79591,0.0933 1.18612,0.19346 z m -0.50661,9.4755 q 0.17512,0.52847 0.45751,0.9959 0.2824,0.46743 0.61863,0.78952 0.35921,0.31447 0.74167,0.46824 0.38246,0.15376 0.77307,0.0243 0.64337,-0.21319 0.88985,-1.08538 0.26947,-0.8798 -0.14169,-2.12057 -0.2132,-0.64337 -0.51082,-1.15675 -0.29762,-0.51338 -0.66445,-0.85083 -0.34385,-0.34507 -0.74167,-0.46824 -0.37484,-0.13079 -0.74248,-0.009 -0.73527,0.24365 -0.93594,1.17716 -0.17769,0.92589 0.25632,2.2356 z"
         style="font-style:normal;font-variant:normal;font-weight:normal;font-stretch:normal;font-size:24.20593071px;font-family:'ChunkFive Ex';-inkscape-font-specification:'ChunkFive Ex, Normal';font-variant-ligatures:normal;font-variant-caps:normal;font-variant-numeric:normal;font-feature-settings:normal;text-align:start;letter-spacing:2.33959174px;writing-mode:lr-tb;text-anchor:start;fill:#ffffff;stroke-width:0.25214508"
         id="path4803"
         inkscape:connector-curvature="0" />
      <path
         d="m 398.93542,145.31224 -1.04793,0.37641 -1.06375,-2.96153 5.67245,-2.03749 5.07327,14.12418 1.09349,-0.39277 1.06375,2.96152 -5.33074,1.91475 -0.69003,-0.70379 q -0.073,0.15482 -0.25812,0.42708 -0.17053,0.24129 -0.46957,0.55446 -0.30721,0.29039 -0.7447,0.57613 -0.4293,0.30852 -1.02161,0.52127 -1.20739,0.43369 -2.3588,0.30714 -1.1596,-0.14932 -2.13761,-0.72395 -0.98618,-0.59742 -1.76623,-1.5518 -0.75726,-0.96256 -1.18276,-2.14717 -0.4746,-1.32129 -0.42635,-2.54746 0.0401,-1.24896 0.49903,-2.26258 0.45896,-1.01361 1.26847,-1.76734 0.80951,-0.75373 1.85744,-1.13014 1.20739,-0.43368 1.99077,-0.32926 0.79799,0.0734 1.19057,0.16392 z m -0.27099,9.48516 q 0.1882,0.52397 0.48212,0.98423 0.29393,0.46027 0.63806,0.7739 0.36692,0.30545 0.75308,0.44967 0.38616,0.14421 0.77343,0.005 0.63787,-0.22911 0.86261,-1.10716 0.24751,-0.88622 -0.19435,-2.11639 -0.22912,-0.63787 -0.53941,-1.1437 -0.31029,-0.50583 -0.68538,-0.83406 -0.35232,-0.33641 -0.75308,-0.44966 -0.37798,-0.12144 -0.74247,0.009 -0.72899,0.26184 -0.9064,1.20005 -0.15463,0.93002 0.31179,2.22853 z"
         style="font-style:normal;font-variant:normal;font-weight:normal;font-stretch:normal;font-size:24.20593071px;font-family:'ChunkFive Ex';-inkscape-font-specification:'ChunkFive Ex, Normal';font-variant-ligatures:normal;font-variant-caps:normal;font-variant-numeric:normal;font-feature-settings:normal;text-align:start;letter-spacing:2.33959174px;writing-mode:lr-tb;text-anchor:start;fill:#ffffff;stroke-width:0.25214508"
         id="path4805"
         inkscape:connector-curvature="0" />
      <path
         d="m 419.56682,154.77705 -6.65938,1.60591 -0.74338,-3.08261 1.03538,-0.24968 -1.35623,-5.624 -1.01185,0.24401 -0.73769,-3.05908 4.42389,-1.06683 1.06912,1.33577 q 0.13317,-0.48031 0.30122,-0.91923 0.16805,-0.43893 0.49999,-0.81777 0.32627,-0.40238 0.87483,-0.70896 0.54856,-0.30659 1.46629,-0.5279 l 1.02142,4.23565 q -1.60013,0.38587 -2.34027,1.13706 -0.72229,0.72197 -0.34777,2.27504 l 0.58449,2.42374 1.17656,-0.28373 z"
         style="font-style:normal;font-variant:normal;font-weight:normal;font-stretch:normal;font-size:24.20593071px;font-family:'ChunkFive Ex';-inkscape-font-specification:'ChunkFive Ex, Normal';font-variant-ligatures:normal;font-variant-caps:normal;font-variant-numeric:normal;font-feature-settings:normal;text-align:start;letter-spacing:2.33959174px;writing-mode:lr-tb;text-anchor:start;fill:#ffffff;stroke-width:0.25214508"
         id="path4807"
         inkscape:connector-curvature="0" />
      <path
         d="m 437.09311,151.58138 q -1.3282,1.19303 -2.81733,1.71185 -1.48969,0.49461 -3.37724,0.53843 -1.13737,0.0264 -2.28374,-0.33439 -1.14579,-0.33659 -2.08335,-1.08962 -0.91391,-0.7778 -1.52335,-1.99848 -0.61,-1.24489 -0.65044,-2.98725 -0.0343,-1.47616 0.44696,-2.64953 0.48066,-1.19757 1.33274,-2.04057 0.85208,-0.84301 2.0283,-1.28192 1.17566,-0.46312 2.55502,-0.49514 1.50037,-0.0348 2.64785,0.37436 1.17169,0.40863 1.96404,1.16503 0.79236,0.75641 1.20427,1.81219 0.41134,1.03159 0.43999,2.26576 0.0112,0.48399 -0.0501,0.96966 -0.0619,0.46148 -0.19757,0.87624 l -7.62281,0.17695 q 0.054,0.24087 0.15868,0.57741 0.12886,0.33599 0.40235,0.6444 0.2735,0.30841 0.73834,0.51553 0.46485,0.20713 1.23923,0.18915 0.31459,-0.007 0.67702,-0.0399 0.38663,-0.0332 0.81941,-0.16429 0.43278,-0.13111 0.91171,-0.36014 0.47837,-0.25323 0.95281,-0.67586 z m -6.15139,-7.36307 q -0.55659,0.0129 -0.91452,0.23914 -0.33374,0.22566 -0.54423,0.54531 -0.18686,0.29489 -0.27579,0.63593 -0.0647,0.34047 -0.0839,0.55883 l 3.65411,-0.0848 q -0.008,-0.33879 -0.0883,-0.6759 -0.081,-0.36131 -0.2808,-0.62301 -0.17614,-0.28646 -0.54306,-0.44743 -0.34273,-0.16153 -0.92351,-0.14805 z"
         style="font-style:normal;font-variant:normal;font-weight:normal;font-stretch:normal;font-size:24.20593071px;font-family:'ChunkFive Ex';-inkscape-font-specification:'ChunkFive Ex, Normal';font-variant-ligatures:normal;font-variant-caps:normal;font-variant-numeric:normal;font-feature-settings:normal;text-align:start;letter-spacing:2.33959174px;writing-mode:lr-tb;text-anchor:start;fill:#ffffff;stroke-width:0.25214508"
         id="path4809"
         inkscape:connector-curvature="0" />
      <path
         d="m 440.26126,153.69204 1.15379,-4.20153 3.1278,0.85893 q -0.1282,0.46684 0.0686,0.8472 0.22012,0.38677 0.56565,0.68247 0.35194,0.27236 0.75286,0.45777 0.40093,0.1854 0.65768,0.25591 0.35013,0.0961 0.71538,0.0458 0.39499,-0.0673 0.5296,-0.55742 0.0897,-0.32679 -0.34916,-0.64813 -0.40914,-0.33828 -1.1048,-0.73013 -0.67232,-0.38544 -1.44212,-0.87296 -0.76979,-0.48751 -1.39494,-1.13613 -0.5954,-0.66554 -0.88687,-1.52374 -0.26172,-0.87514 0.0524,-2.01889 0.24358,-0.88699 0.81345,-1.40825 0.59963,-0.53819 1.31549,-0.76834 0.74561,-0.24709 1.49714,-0.24152 0.78129,-0.0114 1.41151,0.1617 1.19044,0.3269 2.00002,1.12657 0.80959,0.79967 0.97794,1.64916 l 0.60979,-1.48928 2.87104,0.78842 -1.15378,4.20153 -3.03444,-0.83329 q 0.10256,-0.37347 -0.0242,-0.7346 -0.12033,-0.38448 -0.40636,-0.71404 -0.25628,-0.3465 -0.63797,-0.60193 -0.38169,-0.25543 -0.82519,-0.37722 -0.37347,-0.10256 -0.71126,0.0306 -0.30804,0.11623 -0.42983,0.55972 -0.10897,0.39681 0.31711,0.76484 0.42608,0.36802 1.08558,0.80015 0.68925,0.41519 1.47598,0.93246 0.79313,0.49393 1.39494,1.13613 0.62515,0.64861 0.92303,1.48347 0.30429,0.81153 0.009,1.88525 -0.22434,0.81696 -0.77729,1.36797 -0.5296,0.55743 -1.26469,0.8576 -0.70533,0.28325 -1.56305,0.29873 -0.85773,0.0155 -1.69803,-0.21528 -1.26046,-0.34613 -2.07645,-1.12246 -0.79266,-0.76991 -1.02692,-1.56221 l -0.60108,1.36617 z"
         style="font-style:normal;font-variant:normal;font-weight:normal;font-stretch:normal;font-size:24.20593071px;font-family:'ChunkFive Ex';-inkscape-font-specification:'ChunkFive Ex, Normal';font-variant-ligatures:normal;font-variant-caps:normal;font-variant-numeric:normal;font-feature-settings:normal;text-align:start;letter-spacing:2.33959174px;writing-mode:lr-tb;text-anchor:start;fill:#ffffff;stroke-width:0.25214508"
         id="path4811"
         inkscape:connector-curvature="0" />
      <path
         d="m 453.7252,160.23882 -0.14062,-4.3548 3.2419,-0.10469 q 0.0156,0.48387 0.3161,0.789 0.32467,0.30436 0.74221,0.48463 0.41676,0.15607 0.85458,0.21458 0.43782,0.0585 0.70395,0.0499 0.3629,-0.0117 0.69692,-0.16782 0.35743,-0.18107 0.34102,-0.68913 -0.0109,-0.33871 -0.52525,-0.51585 -0.49089,-0.20211 -1.27133,-0.37066 -0.75624,-0.16933 -1.6358,-0.40733 -0.87955,-0.238 -1.66858,-0.67267 -0.76562,-0.45965 -1.2979,-1.19323 -0.50886,-0.75857 -0.54714,-1.94404 -0.0297,-0.91934 0.3605,-1.58585 0.41361,-0.69147 1.02935,-1.12307 0.63916,-0.45657 1.35871,-0.67356 0.74296,-0.24196 1.39618,-0.26305 1.23386,-0.0399 2.24375,0.48457 1.0099,0.52441 1.42199,1.2861 l 0.14198,-1.60301 2.97578,-0.0961 0.14063,4.35479 -3.14513,0.10157 q -0.0125,-0.3871 -0.2404,-0.69458 -0.22868,-0.33167 -0.59939,-0.56189 -0.3473,-0.25519 -0.78747,-0.38628 -0.44016,-0.1311 -0.89984,-0.11626 -0.38709,0.0125 -0.67038,0.23962 -0.25987,0.20214 -0.24503,0.66181 0.0133,0.41129 0.52915,0.63682 0.51587,0.22552 1.27368,0.44324 0.78122,0.19274 1.68575,0.45415 0.90374,0.23722 1.66858,0.67267 0.78903,0.43468 1.32053,1.14407 0.53071,0.6852 0.56665,1.79809 0.0274,0.84677 -0.33787,1.53668 -0.34103,0.68913 -0.95443,1.19331 -0.58999,0.47921 -1.40475,0.7477 -0.81476,0.2685 -1.68572,0.29662 -1.30644,0.0422 -2.31555,-0.45803 -0.98492,-0.501 -1.44306,-1.18855 l -0.17008,1.48283 z"
         style="font-style:normal;font-variant:normal;font-weight:normal;font-stretch:normal;font-size:24.20593071px;font-family:'ChunkFive Ex';-inkscape-font-specification:'ChunkFive Ex, Normal';font-variant-ligatures:normal;font-variant-caps:normal;font-variant-numeric:normal;font-feature-settings:normal;text-align:start;letter-spacing:2.33959174px;writing-mode:lr-tb;text-anchor:start;fill:#ffffff;stroke-width:0.25214508"
         id="path4813"
         inkscape:connector-curvature="0" />
      <path
         d="m 475.936,153.76751 -0.13994,-3.14366 1.40256,-0.0624 -0.47363,-10.64008 -1.40256,0.0624 -0.13886,-3.11948 9.01988,-0.40151 q 3.02275,-0.13456 4.52211,0.88905 1.49828,0.99942 1.58655,2.98234 0.0344,0.77383 -0.0606,1.35958 -0.0962,0.56156 -0.3417,1.03286 -0.24663,0.44712 -0.69102,0.80612 -0.44438,0.359 -1.10964,0.65514 0.66153,0.16439 1.25696,0.47711 0.59437,0.28853 1.05225,0.77697 0.45788,0.48845 0.73091,1.17896 0.29615,0.66526 0.3349,1.53581 0.1141,2.56329 -1.3808,3.8171 -1.4718,1.22855 -4.97818,1.38463 z m 8.20285,-3.51503 q 0.77382,-0.0344 1.33051,-0.59229 0.57979,-0.58309 0.53566,-1.57455 -0.0409,-0.91892 -0.57564,-1.50086 -0.53473,-0.58195 -1.55038,-0.53674 l -1.86201,0.0829 0.1873,4.20766 z m -2.40496,-10.48141 0.16146,3.62729 1.4751,-0.0657 q 0.96728,-0.0431 1.2843,-0.54177 0.31594,-0.52289 0.27719,-1.39344 -0.0377,-0.84637 -0.51758,-1.28537 -0.45573,-0.44009 -1.15701,-0.40887 z"
         style="font-style:normal;font-variant:normal;font-weight:normal;font-stretch:normal;font-size:24.20593071px;font-family:'ChunkFive Ex';-inkscape-font-specification:'ChunkFive Ex, Normal';font-variant-ligatures:normal;font-variant-caps:normal;font-variant-numeric:normal;font-feature-settings:normal;text-align:start;letter-spacing:2.33959174px;writing-mode:lr-tb;text-anchor:start;fill:#ffffff;stroke-width:0.25214508"
         id="path4815"
         inkscape:connector-curvature="0" />
      <path
         d="m 501.07809,155.70975 q -1.27081,-0.30593 -2.38038,-0.97141 -1.08037,-0.68334 -1.81122,-1.6809 -0.73086,-0.99755 -0.98886,-2.30454 -0.258,-1.30698 0.11591,-2.8602 0.35692,-1.48262 1.17013,-2.48193 0.84241,-1.01717 1.92365,-1.5785 1.10476,-0.55566 2.35422,-0.67813 1.27299,-0.1168 2.47321,0.17214 1.38848,0.33425 2.48105,1.07033 1.09824,0.71253 1.77069,1.74583 0.70166,1.01543 0.91259,2.31108 0.21661,1.27212 -0.14031,2.75474 -0.35126,1.45908 -1.14093,2.46406 -0.76048,0.9871 -1.81818,1.55409 -1.0577,0.56699 -2.33069,0.68379 -1.24946,0.12247 -2.59088,-0.20045 z m 0.72517,-3.01231 q 0.37654,0.0907 0.71559,-0.0767 0.3626,-0.16169 0.67637,-0.5343 0.31378,-0.37262 0.54389,-0.91477 0.2593,-0.56001 0.41793,-1.21895 0.15863,-0.65894 0.17693,-1.25207 0.024,-0.61667 -0.0859,-1.09126 -0.10982,-0.4746 -0.38264,-0.78925 -0.24362,-0.33252 -0.66722,-0.4345 -0.35301,-0.085 -0.7156,0.0767 -0.33905,0.16735 -0.65283,0.53997 -0.31378,0.37261 -0.59095,0.90343 -0.25364,0.53648 -0.40661,1.17189 -0.35125,1.45908 -0.0667,2.4488 0.28458,0.98971 1.03766,1.171 z"
         style="font-style:normal;font-variant:normal;font-weight:normal;font-stretch:normal;font-size:24.20593071px;font-family:'ChunkFive Ex';-inkscape-font-specification:'ChunkFive Ex, Normal';font-variant-ligatures:normal;font-variant-caps:normal;font-variant-numeric:normal;font-feature-settings:normal;text-align:start;letter-spacing:2.33959174px;writing-mode:lr-tb;text-anchor:start;fill:#ffffff;stroke-width:0.25214508"
         id="path4817"
         inkscape:connector-curvature="0" />
      <path
         d="m 516.50378,160.64092 q -1.22786,-0.44825 -2.25469,-1.23541 -0.99579,-0.8016 -1.60864,-1.87569 -0.61286,-1.07409 -0.72079,-2.40192 -0.10793,-1.32783 0.43993,-2.82854 0.52296,-1.4325 1.44438,-2.33301 0.95247,-0.91495 2.09044,-1.34987 1.16072,-0.42662 2.416,-0.40642 1.27803,0.0285 2.43767,0.45185 1.34155,0.48975 2.34347,1.34512 1.01023,0.83264 1.56101,1.9356 0.58181,1.08854 0.64427,2.39976 0.0707,1.28849 -0.45221,2.72099 -0.51466,1.40976 -1.41334,2.31857 -0.86764,0.89437 -1.98288,1.33759 -1.11525,0.44323 -2.39327,0.41473 -1.25528,-0.0202 -2.55135,-0.49335 z m 1.06252,-2.91048 q 0.36381,0.13281 0.71967,0.005 0.37861,-0.11947 0.73267,-0.45404 0.35406,-0.33458 0.64423,-0.84709 0.32122,-0.52695 0.55364,-1.16362 0.23243,-0.63666 0.31796,-1.22388 0.0938,-0.60996 0.0386,-1.09395 -0.0552,-0.484 -0.29055,-0.82759 -0.20429,-0.35803 -0.61357,-0.50745 -0.34107,-0.12451 -0.71968,-0.005 -0.35587,0.12777 -0.70993,0.46235 -0.35406,0.33458 -0.68971,0.83049 -0.31291,0.50421 -0.53703,1.11814 -0.51466,1.40976 -0.3443,2.42539 0.17037,1.01563 0.89799,1.28126 z"
         style="font-style:normal;font-variant:normal;font-weight:normal;font-stretch:normal;font-size:24.20593071px;font-family:'ChunkFive Ex';-inkscape-font-specification:'ChunkFive Ex, Normal';font-variant-ligatures:normal;font-variant-caps:normal;font-variant-numeric:normal;font-feature-settings:normal;text-align:start;letter-spacing:2.33959174px;writing-mode:lr-tb;text-anchor:start;fill:#ffffff;stroke-width:0.25214508"
         id="path4819"
         inkscape:connector-curvature="0" />
      <path
         d="m 526.04617,164.07892 0.9714,-2.99309 0.94397,0.30637 3.65396,-11.2586 -0.94397,-0.30637 0.97887,-3.0161 5.31848,1.7261 -3.37749,10.40672 3.18635,-0.72185 -1.65771,-0.538 0.98634,-3.03913 6.44664,2.09224 -0.98634,3.03913 -1.77283,-0.57536 -1.88692,0.4819 1.66605,5.45234 1.15118,0.37361 -0.97887,3.01611 -6.81502,-2.2118 0.97887,-3.01611 0.967,0.31384 -0.9428,-3.05446 -0.98516,0.29104 -0.62768,1.93399 0.85188,0.27648 -0.97887,3.0161 z"
         style="font-style:normal;font-variant:normal;font-weight:normal;font-stretch:normal;font-size:24.20593071px;font-family:'ChunkFive Ex';-inkscape-font-specification:'ChunkFive Ex, Normal';font-variant-ligatures:normal;font-variant-caps:normal;font-variant-numeric:normal;font-feature-settings:normal;text-align:start;letter-spacing:2.33959174px;writing-mode:lr-tb;text-anchor:start;fill:#ffffff;stroke-width:0.25214508"
         id="path4821"
         inkscape:connector-curvature="0" />
    </g>
  </g>
</svg>
