<?xml version="1.0" encoding="UTF-8" standalone="no"?>
<!-- Created with Inkscape (http://www.inkscape.org/) -->

<svg
   xmlns:dc="http://purl.org/dc/elements/1.1/"
   xmlns:cc="http://creativecommons.org/ns#"
   xmlns:rdf="http://www.w3.org/1999/02/22-rdf-syntax-ns#"
   xmlns:svg="http://www.w3.org/2000/svg"
   xmlns="http://www.w3.org/2000/svg"
   xmlns:sodipodi="http://sodipodi.sourceforge.net/DTD/sodipodi-0.dtd"
   xmlns:inkscape="http://www.inkscape.org/namespaces/inkscape"
   version="1.1"
   id="svg2"
   width="550"
   height="550"
   viewBox="0 0 550 550"
   sodipodi:docname="django.svg"
   inkscape:version="0.92.5 (2060ec1f9f, 2020-04-08)">
  <metadata
     id="metadata8">
    <rdf:RDF>
      <cc:Work
         rdf:about="">
        <dc:format>image/svg+xml</dc:format>
        <dc:type
           rdf:resource="http://purl.org/dc/dcmitype/StillImage" />
        <dc:title />
      </cc:Work>
    </rdf:RDF>
  </metadata>
  <defs
     id="defs6" />
  <sodipodi:namedview
     pagecolor="#ffffff"
     bordercolor="#666666"
     borderopacity="1"
     objecttolerance="10"
     gridtolerance="10"
     guidetolerance="10"
     inkscape:pageopacity="0"
     inkscape:pageshadow="2"
     inkscape:window-width="1366"
     inkscape:window-height="715"
     id="namedview4"
     showgrid="false"
     inkscape:zoom="0.42909091"
     inkscape:cx="221.90113"
     inkscape:cy="90.356464"
     inkscape:window-x="-8"
     inkscape:window-y="-8"
     inkscape:window-maximized="1"
     inkscape:current-layer="svg2" />
  <g
     id="g817"
     style="stroke:none">
    <path
       style="fill:#000000;stroke:none"
       d="M 257.16102,519.53767 C 161.3194,512.0004 74.399126,443.26682 44.634686,351.93645 14.232066,263.02844 39.082406,157.85795 107.99284,93.446772 178.88988,23.850057 293.19659,4.9688976 382.93006,47.344694 479.57704,89.812043 540.35788,199.30703 525.46055,303.84076 c -11.79302,103.23379 -95.33862,193.649 -197.94627,211.6892 -23.09868,4.68535 -46.87031,6.32844 -70.35326,4.00771 z m 79.5,-70.68514 c 33.20304,-15.79152 49.43039,-52.41072 49.70201,-87.75579 1.22959,-52.41646 2.43813,-105.15956 0.0567,-157.45799 -18.7529,0.17691 -37.5058,0.35383 -56.2587,0.53074 -1.01988,53.41647 0.70657,107.00466 -3.13124,160.27656 -1.08034,30.11104 -27.18586,49.33022 -48.7793,62.99432 17.47544,7.6253 39.3094,27.81906 58.41054,21.41216 z m -87.5,-69.22187 c 15.47053,-4.72701 45.52872,1.99948 52.5,-12.57857 v -245.4321 c -13.36659,0.55218 -56.08014,-0.43694 -56.08014,-0.43694 0,0 -1.78565,56.97049 -1.98492,80.20599 -44.15752,-9.22701 -97.95549,11.73292 -110.4129,58.3428 -11.80867,39.08884 -2.58075,90.65772 38.14824,108.88918 24.1462,11.34517 51.59418,12.99118 77.82972,11.00964 z m -34.61306,-48.41204 c -28.82167,-6.1533 -32.11687,-43.43274 -21.66188,-65.81788 5.14266,-16.00975 50.47452,-30.8014 50.77494,-8.78735 v 74.8061 c -9.53207,1.99356 -19.56584,1.32686 -29.11306,-0.20087 z M 386.62584,177.73523 c -3.14284,-17.98931 14.38478,-61.40059 -15.66621,-57.04468 -21.03194,-0.68803 -51.05166,-6.23972 -41.29612,25.01172 -1.56528,19.57633 -3.96511,42.44861 23.13176,33.95361 10.98846,-1.02794 23.63734,2.09296 33.83057,-1.92065 z"
       id="path819"
       inkscape:connector-curvature="0"
       sodipodi:nodetypes="ccccccccccccccccccccccccccccccccc" />
  </g>
</svg>
