<?xml version="1.0" encoding="UTF-8" standalone="no"?>
<!-- Generator: Adobe Illustrator 18.1.1, SVG Export Plug-In . SVG Version: 6.00 Build 0)  -->

<svg
   xmlns:dc="http://purl.org/dc/elements/1.1/"
   xmlns:cc="http://creativecommons.org/ns#"
   xmlns:rdf="http://www.w3.org/1999/02/22-rdf-syntax-ns#"
   xmlns:svg="http://www.w3.org/2000/svg"
   xmlns="http://www.w3.org/2000/svg"
   xmlns:sodipodi="http://sodipodi.sourceforge.net/DTD/sodipodi-0.dtd"
   xmlns:inkscape="http://www.inkscape.org/namespaces/inkscape"
   version="1.1"
   id="Capa_1"
   x="0px"
   y="0px"
   viewBox="0 0 99.598 99.598"
   style="enable-background:new 0 0 99.598 99.598;"
   xml:space="preserve"
   sodipodi:docname="earthandmoon.svg"
   inkscape:version="0.92.5 (2060ec1f9f, 2020-04-08)"><metadata
   id="metadata41"><rdf:RDF><cc:Work
       rdf:about=""><dc:format>image/svg+xml</dc:format><dc:type
         rdf:resource="http://purl.org/dc/dcmitype/StillImage" /></cc:Work></rdf:RDF></metadata><defs
   id="defs39" /><sodipodi:namedview
   pagecolor="#ffffff"
   bordercolor="#666666"
   borderopacity="1"
   objecttolerance="10"
   gridtolerance="10"
   guidetolerance="10"
   inkscape:pageopacity="0"
   inkscape:pageshadow="2"
   inkscape:window-width="1366"
   inkscape:window-height="715"
   id="namedview37"
   showgrid="false"
   inkscape:zoom="2.3695255"
   inkscape:cx="82.810864"
   inkscape:cy="69.284433"
   inkscape:window-x="-8"
   inkscape:window-y="-8"
   inkscape:window-maximized="1"
   inkscape:current-layer="Capa_1" />
<g
   id="g4">
	<path
   style="fill:#010002"
   d="m 99.455,39.379 c -1.23,-5.98 -10.486,-9.412 -25.397,-9.412 -3.268,0 -6.723,0.186 -10.278,0.522 -3.342,-1.979 -7.239,-3.117 -11.404,-3.117 -7.448,0 -14.043,3.633 -18.123,9.221 C 23.958,39.928 14.868,44.316 9.691,49.103 9.107,48.964 8.501,48.883 7.875,48.883 3.526,48.883 0,52.408 0,56.758 c 0,4.351 3.526,7.875 7.875,7.875 0.734,0 1.441,-0.107 2.115,-0.296 4.32,2.456 11.404,3.796 20.701,3.796 2.653,0 5.433,-0.124 8.285,-0.347 3.738,2.79 8.375,4.441 13.399,4.441 8.268,0 15.484,-4.478 19.374,-11.135 16.37,-5.49 29.366,-13.626 27.706,-21.713 z m -38.981,-2.774 1.577,-1.062 c 0,0 -0.664,-1.699 -0.549,-2.524 0.389,-0.178 1.937,0.633 3.246,2.014 -0.879,3.285 -2.961,2.889 -2.961,2.889 0,0 -1.511,-0.033 -1.313,-1.317 z M 6.7569619,58.737506 c 0,0.403 0.3060381,0.625494 -0.097962,0.625494 -0.403,0 -0.73,-0.328 -0.73,-0.731 0,-0.402 0.327,-0.73 0.73,-0.73 0.405,-10e-4 0.097962,0.433506 0.097962,0.835506 z M 11.796,59.567 c -0.532,0 -0.963,-0.434 -0.963,-0.964 0,-0.532 0.432,-0.966 0.963,-0.966 0.533,0 0.964,0.434 0.964,0.966 -0.002,0.53 -0.433,0.964 -0.964,0.964 z M 5.9636896,51.619234 c 0.404,0 0.045209,1.33031 0.045209,1.73331 0,0.403 1.8886335,1.574051 1.4846335,1.574051 -0.404,0 -2.4708549,-0.854531 -2.4708549,-1.257531 0,-0.403 0.5370127,-2.04983 0.9410127,-2.04983 z M 6.146,61.46 c -1.1,0 -1.992,-0.894 -1.992,-1.994 0,-1.1 0.892,-1.995 1.992,-1.995 1.103,0 2.6807913,0.948753 2.6807913,2.047753 C 8.8257913,60.619753 7.249,61.46 6.146,61.46 Z m 24.546,3.673 c -7.452,0 -13.541,-0.942 -17.505,-2.572 1.572,-1.439 2.563,-3.502 2.563,-5.803 0,-2.517 -1.185,-4.752 -3.021,-6.192 4.055,-3.385 10.659,-6.956 19.222,-10.026 -1.283,2.824 -2.003,5.958 -2.003,9.262 0,5.853 2.243,11.179 5.914,15.172 -1.763,0.093 -3.5,0.159 -5.17,0.159 z m 16.496,-9.104 c -0.099,0.495 -0.692,1.682 -1.089,2.473 -0.39,0.777 -0.593,1.082 -1.084,1.474 -0.493,0.398 0.25246,1.242209 0.25246,1.242209 l 1.471689,1.904812 c 0.32454,0 0.445982,2.125043 -0.925481,2.624043 -0.820438,0.492 2.338514,4.845481 2.744817,4.845481 C 47.699485,70.423545 42.226,66.896 41.929,66.118 41.631,65.322 41.237,64.893 41.341,64.02 c 0.093,-0.889 -0.773,-1.363 -1.068,-1.856 -0.292,-0.495 -0.682,-1.188 -0.682,-1.682 0,-0.498 -1.087,-1.195 -1.087,-1.195 0,0 -1.978,-0.881 -2.273,-1.27 -0.298,-0.408 -0.596,-2.085 -0.695,-2.771 -0.104,-0.689 0.292,-2.467 0.292,-2.467 0,0 0.79,-0.604 0.29,-1.093 -0.491,-0.5 -0.59,-1.791 -0.59,-1.791 l -0.889,-0.987 c 0,0 -0.689,-0.996 -0.785,-1.478 -0.101,-0.49 0,-0.787 0.096,-1.287 0.099,-0.494 -0.196,-1.375 -0.196,-1.873 0.996,-2.435 2.171,-4.359 3.357,-5.884 l 0.669,-0.823 c 2.99,-3.463 5.845,-4.447 5.845,-4.447 l 0.499,2.066 c 0,0 -1.089,0.295 -1.68,0.103 -0.594,-0.196 -0.89,-0.196 -0.89,-0.196 l -0.788,1.086 -0.224,1.755 c 0,0 1.403,0.42 1.403,0.023 0,-0.397 -0.194,-0.592 -0.194,-0.592 l -0.146,-0.527 c 0.481,-0.156 0.953,-0.318 1.44,-0.471 0.47,-0.037 1.022,-0.059 1.766,0.009 2.377,0.196 1.489,1.87 2.477,2.278 0.991,0.396 -0.792,1.766 -1.188,2.564 -0.39,0.788 -0.99,-0.995 -0.99,-0.995 0,0 0.601,-0.684 -0.39,-0.881 -0.993,-0.191 -1.648,1.771 -1.143,1.686 0.491,-0.097 1.042,0.528 0.945,1.015 -0.101,0.495 -0.101,0.456 -0.602,1.538 -0.488,1.092 -1.564,1.897 -1.564,1.897 0,0 -0.502,-0.306 -0.205,0.288 0.298,0.595 -0.107,1.972 -0.107,2.371 0,0.396 -1.178,-0.688 -1.372,-1.682 -0.198,-0.982 -1.353,-0.126 -1.75,-0.027 -0.394,0.104 -1.114,-0.174 -1.314,-0.661 -0.193,-0.492 -1.974,0.989 -2.472,1.276 -0.492,0.293 -0.293,1.095 0.498,0.695 0.79,-0.406 1.476,-0.092 1.283,0.694 -0.195,0.775 -0.988,0.292 -0.888,0.775 0.096,0.498 0.888,0.999 1.084,1.696 0.196,0.689 2.075,0.096 2.668,-0.199 0.595,-0.292 2.265,-0.595 2.468,0.199 0.199,0.789 2.075,1.084 2.765,1.278 0.695,0.188 2.072,0.29 2.869,1.093 0.784,0.782 -0.597,2.265 -0.695,2.759 z M 51.621,32.92 c -0.023,0.198 -0.113,0.41 -0.229,0.633 l -0.434,0.668 c -0.446,0.602 -0.931,1.133 -0.816,1.368 0.192,0.399 0,2.081 -1.388,0.6 -0.431,-0.458 -0.845,-0.811 -1.232,-1.125 l -0.518,-0.428 c -0.577,-0.481 -0.968,-0.877 -0.912,-1.421 0.026,-0.195 1.433,-0.5 1.455,-0.852 2.093,-1.943 5.441,-1.547 5.696,-1.091 -0.599,0.987 -1.527,0.649 -1.622,1.648 z m 19.72,16.11 c -0.426,-0.183 -0.788,-0.353 -0.788,-0.353 h -2.64 l 1.582,1.852 c 0,0 0.764,1.114 1.846,1.051 -0.467,5.389 -3.563,9.503 -5.65,11.723 l -0.878,0.885 c -0.649,0.621 -1.078,0.946 -1.078,0.946 -0.173,-0.166 -0.242,-0.313 -0.335,-0.481 l -0.233,-0.502 c -0.146,-0.568 0.044,-0.984 0.044,-0.984 l 0.293,-1.587 0.174,-2.662 c 0,0 -0.0746,-3.948668 -2.714604,-2.640668 -2.829,0.72 -1.569396,1.913668 -4.435396,2.110668 -2.869,0.204 -2.391,-5.834 -2.391,-5.834 0,-9.04 6.925,-2.217 6.925,-2.217 3.951,2.638 4.477,-2.177 4.477,-2.177 l 2.9,-1.045 0.262,-1.319 -0.418,-1.843 -4.207,-1.738 c 0,0 -0.404,1.361 0.669,3.056 0,0 -0.351,1.907 -1.241,1.408 L 61.07,45.448 c 0,0 -0.818,-0.35 -2.147,0.442 -1.313,0.782 -3.543,-0.041 -3.543,-0.041 0,0 0.179,-1.329 1.565,-2.009 l 1.126,-0.76 c 0,0 -0.292,-1.348 -0.033,-2.402 0.264,-1.054 0.723,-0.134 1.777,-0.925 1.05,-0.781 1.776,1.546 3.354,1.285 1.574,-0.265 0.784,-0.529 1.844,-1.055 1.056,-0.528 1.839,1.055 1.839,1.055 l 2.108,0.261 c 0.008,0.008 -0.327,-2.366 -0.179,-1.753 1.331,2.284 3.286,8.397 2.56,9.484 z m 2.169,8.277 c 0.834,-2.348 1.292,-4.872 1.292,-7.507 0,-6.577 -2.831,-12.491 -7.341,-16.595 2.264,-0.152 4.476,-0.238 6.597,-0.238 12.768,0 21.582,2.754 22.457,7.017 0.961,4.677 -7.865,11.775 -23.005,17.323 z"
   id="path2"
   inkscape:connector-curvature="0"
   sodipodi:nodetypes="cscsccssscscsccccccccssscsssscssssssssscsscsccscsccccccccccsccccccccccccccccccscccccccccccccsccccccccccccccccccccccccccccccccccccccccccccccccccccccccccccccscscc" />
</g>
<g
   id="g6">
</g>
<g
   id="g8">
</g>
<g
   id="g10">
</g>
<g
   id="g12">
</g>
<g
   id="g14">
</g>
<g
   id="g16">
</g>
<g
   id="g18">
</g>
<g
   id="g20">
</g>
<g
   id="g22">
</g>
<g
   id="g24">
</g>
<g
   id="g26">
</g>
<g
   id="g28">
</g>
<g
   id="g30">
</g>
<g
   id="g32">
</g>
<g
   id="g34">
</g>
<path
   style="fill:#ffffff;stroke:none;stroke-width:1px;stroke-linecap:butt;stroke-linejoin:miter;stroke-opacity:1"
   d="m 55.389927,40.631649 c -1.454206,0.491941 -2.271491,1.461572 -2.532152,2.848672 l 1.326782,1.46959 c -0.210618,-1.051171 -0.555968,-2.441093 1.203174,-1.620995 -1.088149,-1.432139 -1.032764,-1.458138 0.0022,-2.697267 z"
   id="path848"
   inkscape:connector-curvature="0"
   sodipodi:nodetypes="ccccc" /></svg>