<?xml version="1.0" encoding="UTF-8" standalone="no"?>
<!-- Created with Inkscape (http://www.inkscape.org/) -->

<svg
   xmlns:dc="http://purl.org/dc/elements/1.1/"
   xmlns:cc="http://creativecommons.org/ns#"
   xmlns:rdf="http://www.w3.org/1999/02/22-rdf-syntax-ns#"
   xmlns:svg="http://www.w3.org/2000/svg"
   xmlns="http://www.w3.org/2000/svg"
   xmlns:sodipodi="http://sodipodi.sourceforge.net/DTD/sodipodi-0.dtd"
   xmlns:inkscape="http://www.inkscape.org/namespaces/inkscape"
   version="1.1"
   id="svg2"
   width="30"
   height="30"
   viewBox="0 0 30 30"
   sodipodi:docname="globe.svg"
   inkscape:version="0.92.5 (2060ec1f9f, 2020-04-08)">
  <metadata
     id="metadata8">
    <rdf:RDF>
      <cc:Work
         rdf:about="">
        <dc:format>image/svg+xml</dc:format>
        <dc:type
           rdf:resource="http://purl.org/dc/dcmitype/StillImage" />
        <dc:title></dc:title>
      </cc:Work>
    </rdf:RDF>
  </metadata>
  <defs
     id="defs6" />
  <sodipodi:namedview
     pagecolor="#ffffff"
     bordercolor="#666666"
     borderopacity="1"
     objecttolerance="10"
     gridtolerance="10"
     guidetolerance="10"
     inkscape:pageopacity="0"
     inkscape:pageshadow="2"
     inkscape:window-width="1366"
     inkscape:window-height="715"
     id="namedview4"
     showgrid="false"
     inkscape:zoom="12.535377"
     inkscape:cx="20.661664"
     inkscape:cy="13.424318"
     inkscape:window-x="-8"
     inkscape:window-y="-8"
     inkscape:window-maximized="1"
     inkscape:current-layer="svg2" />
  <flowRoot
     xml:space="preserve"
     id="flowRoot842"
     style="font-size:40px;line-height:1;font-family:sans-serif;letter-spacing:0px;word-spacing:0px"
     transform="translate(0,-183)"><flowRegion
       id="flowRegion844"><rect
         id="rect846"
         width="55.841961"
         height="54.086926"
         x="150.61374"
         y="81.37252" /></flowRegion><flowPara
       id="flowPara848" /></flowRoot>  <g
     id="g836"
     transform="matrix(1.0155953,0,0,1.0155953,76.287609,-1.1897739)"
     style="stroke-width:0.98464417" />
  <g
     id="g828"
     transform="matrix(0.1567266,0,0,0.1567266,39.282313,-22.155858)"
     style="stroke-width:6.38053799">
    <path
       style="fill:#97ca67;stroke-width:6.38053799"
       d="m -165.58835,330.00877 c -38.35427,-4.44388 -69.48097,-31.03676 -80.28362,-68.58978 -1.93131,-6.71377 -2.23832,-10.13432 -2.22489,-24.7885 0.0144,-15.72042 0.22352,-17.67149 2.77817,-25.92109 7.08959,-22.89405 19.57619,-39.62382 39.40326,-52.79319 15.54247,-10.32348 30.86421,-14.78572 50.76893,-14.78572 6.69158,0 14.83362,0.67116 19.27754,1.58908 33.77252,6.9759 61.445234,33.18863 71.236584,67.47819 2.67955,9.38387 3.71671,29.3548 2.07107,39.87947 -3.14594,20.11981 -12.65407,37.84301 -28.19371,52.55326 -12.218724,11.56656 -24.073754,18.37843 -39.102984,22.46847 -6.61435,1.80003 -23.0836,4.19375 -26.7885,3.89358 -0.825,-0.0668 -4.84883,-0.50954 -8.94185,-0.98377 z"
       id="path843"
       inkscape:connector-curvature="0"
       sodipodi:nodetypes="ssssssssssccs" />
    <path
       style="fill:#3891b9;stroke-width:6.38053799"
       d="m -170.1032,329.40218 c -12.99498,-2.33664 -34.31834,-11.10349 -34.31834,-14.10959 0,-0.60572 3.38799,-6.62366 7.52886,-13.37321 7.13514,-11.63017 7.49325,-12.49459 6.84794,-16.53013 -0.63455,-3.96826 -0.45589,-4.44188 2.62366,-6.95528 1.97564,-1.61245 3.01224,-3.17006 2.57765,-3.87324 -0.3998,-0.6469 -3.75936,-2.7033 -7.46568,-4.56977 -4.90135,-2.46828 -7.49353,-4.53411 -9.50686,-7.57646 -2.73072,-4.1264 -2.82896,-4.17375 -7.27567,-3.50692 -3.512,0.52665 -4.92078,0.302 -6.37844,-1.01717 -3.56322,-3.22467 -10.95146,1.11181 -10.95146,6.4279 0,1.54333 -0.9,3.62054 -2,4.61603 -1.1,0.99549 -2,2.48449 -2,3.30889 0,1.97285 6.65257,14.00512 9.50486,17.19111 1.5903,1.77635 2.41423,4.29565 2.84645,8.70346 0.33457,3.41191 0.20419,6.45322 -0.28971,6.75847 -1.39327,0.86109 -13.09555,-13.39688 -17.92878,-21.84429 -4.28054,-7.48141 -9.66041,-21.74497 -10.28854,-27.27778 -0.24117,-2.12433 0.0528,-2.73655 1.16666,-2.42984 0.81898,0.22552 3.06406,0.6202 4.98906,0.87707 1.925,0.25687 4.75347,1.35187 6.28549,2.43334 2.90212,2.04863 5.71451,1.80606 5.71451,-0.49288 0,-2.28506 -6.34106,-7.55962 -9.5,-7.9022 -2.55776,-0.27739 -3.14101,-0.89636 -3.95654,-4.19889 -0.86162,-3.48914 -0.71656,-4.06787 1.46178,-5.83179 1.95965,-1.58683 3.27907,-1.83104 6.95654,-1.28759 2.49602,0.36886 5.29736,1.34974 6.22521,2.17975 2.15811,1.93054 3.81301,0.90584 3.81301,-2.36098 0,-1.61212 1.24065,-3.71383 3.35943,-5.69098 1.84768,-1.72418 3.63348,-4.25987 3.96845,-5.63487 0.42254,-1.7345 2.33066,-3.41861 6.23157,-5.5 3.0924,-1.65 6.01561,-3.72806 6.49603,-4.6179 0.48042,-0.88984 2.23947,-1.89109 3.909,-2.225 2.9354,-0.58708 3.03552,-0.78697 3.03552,-6.06067 0,-6.03424 -1.62408,-8.59643 -5.44898,-8.59643 -1.26837,0 -2.86633,-0.675 -3.55102,-1.5 -1.42592,-1.71813 -5.26756,-1.96236 -7.98566,-0.50768 -1.01979,0.54578 -2.37511,2.57078 -3.01181,4.5 -0.6367,1.92922 -1.50299,3.50768 -1.92509,3.50768 -1.56319,0 -3.93757,-3.5906 -4.25248,-6.43071 -0.26523,-2.39202 0.30285,-3.35921 3.09058,-5.2619 1.87855,-1.28215 4.53054,-2.21333 5.89332,-2.06929 1.83614,0.19408 2.89773,-0.48397 4.09946,-2.61835 2.14974,-3.81813 3.59168,-3.4015 3.59168,1.03778 0,5.59581 2.66017,6.64384 6.67447,2.62954 l 3.19179,-3.19179 -1.81805,-3.37591 c -0.99993,-1.85675 -3.01657,-5.14069 -4.48143,-7.29764 -2.42868,-3.57615 -3.05565,-3.92173 -7.11508,-3.92173 -4.11318,0 -4.47576,0.20915 -4.76816,2.75038 -0.43745,3.8019 -3.2327,5.12644 -6.84389,3.24299 -1.56181,-0.81458 -3.40215,-1.48382 -4.08965,-1.48721 -1.96481,-0.01 -1.47085,-1.87622 1.20455,-4.55162 2.07571,-2.07571 3.42617,-2.46001 8.75,-2.48998 3.5602,-0.02 7.38165,-0.65636 8.79545,-1.46456 1.375,-0.78602 3.49133,-1.44508 4.70295,-1.46457 3.21757,-0.0518 6.54701,-1.83375 8.58839,-4.59672 l 1.79134,-2.42454 -4.55589,-2.21342 c -2.50575,-1.21738 -4.41932,-2.68307 -4.2524,-3.25709 0.48215,-1.65803 10.57229,-6.20795 20.29455,-9.15136 8.03896,-2.4338 10.47931,-2.70534 24.43106,-2.71851 12.83122,-0.0121 16.87744,0.36 23.5,2.16116 13.80019,3.75328 32.49776,13.85554 38.88484,21.00941 1.8785,2.10401 1.86841,2.11791 -3,4.13218 -7.64696,3.16388 -7.84845,3.37084 -8.38484,8.613 -0.48049,4.69577 -0.63802,4.90873 -4.03633,5.45633 -1.99859,0.32204 -5.84359,2.39361 -8.8423,4.76395 -5.49146,4.34076 -7.68858,4.58627 -6.72614,0.75159 0.41762,-1.66391 -0.17849,-2.76438 -2.37848,-4.39091 -1.61467,-1.19377 -3.87633,-2.1705 -5.02592,-2.1705 -2.95865,0 -7.99083,2.79044 -7.99083,4.43107 0,0.75883 -1.575,3.26485 -3.5,5.56893 -1.925,2.30407 -3.5,5.07623 -3.5,6.16035 0,3.57014 1.91529,5.83965 4.92819,5.83965 3.05782,0 4.24283,-1.63001 3.43389,-4.72341 -0.28087,-1.07406 0.21076,-2.50711 1.11859,-3.26055 1.36773,-1.13511 1.86653,-1.09742 3.20626,0.24232 1.64287,1.64287 1.52274,2.21181 -1.52888,7.24086 -1.46857,2.42018 -2.73247,3.12976 -6.54656,3.67534 -2.59965,0.37186 -5.37348,1.21294 -6.16406,1.86907 -1.12912,0.93708 -1.96715,0.84585 -3.90724,-0.42534 -2.86874,-1.87967 -5.54019,-2.11418 -5.54019,-0.48633 0,0.62259 0.93388,2.64301 2.07528,4.48985 2.68883,4.3506 2.18915,6.72614 -1.55107,7.374 -2.29402,0.39735 -3.16149,1.24387 -3.89478,3.80071 -1.05785,3.6885 -0.45546,4.63321 3.55636,5.57731 2.18237,0.51357 3.55269,-0.11825 7.31082,-3.37089 5.36326,-4.64187 8.14284,-5.08146 9.50339,-1.50294 1.15316,3.03304 3.53298,3.24116 5.03207,0.44007 1.73031,-3.23311 6.37152,-2.28193 6.79227,1.39202 0.24635,2.15103 1.16479,3.18325 3.81922,4.29234 5.74836,2.40182 3.65395,3.88767 -5.32591,3.77842 -6.39911,-0.0779 -8.56441,-0.51221 -10.90141,-2.18676 -2.76892,-1.98404 -3.31231,-2.02525 -10.75663,-0.81561 -4.39797,0.71463 -8.24932,1.89429 -8.77177,2.68676 -6.76955,10.26842 -7.76194,12.5371 -6.98703,15.97294 1.05129,4.66133 2.33379,6.87517 6.00923,10.37317 2.59909,2.47362 4.36965,3.10051 11.29722,4 l 8.21507,1.06665 2.47787,6.33002 c 2.14335,5.47547 2.31738,6.75519 1.28909,9.47945 -1.0305,2.73012 -0.8413,4.08417 1.42108,10.16998 3.04686,8.19607 5.46771,10.74582 9.79924,10.321 2.77192,-0.27186 3.60662,-1.29962 8.7716,-10.80045 4.93045,-9.0694 5.6298,-11.01324 5.13296,-14.26696 -0.5371,-3.51736 -0.169,-4.22401 5.55531,-10.66489 7.94397,-8.9384 8.03481,-10.5445 0.55266,-9.77227 l -5.57786,0.57569 -1.48072,-3.54387 c -1.73031,-4.14122 -0.82742,-5.84286 1.36772,-2.5777 2.10413,3.12977 4.98081,2.77848 10.51872,-1.28451 5.44753,-3.99668 5.87285,-5.724 2,-8.12247 -3.32579,-2.05967 -5.25,-4.27128 -5.25,-6.03415 0,-2.32308 3.38871,-1.37793 7.89073,2.20084 2.4149,1.91966 5.3399,3.49643 6.5,3.50394 5.04034,0.0326 6.61556,1.3213 11.22415,9.1823 2.57282,4.38853 5.35206,8.23787 6.17609,8.55408 1.94506,0.74639 4.20903,-2.38341 4.20903,-5.81871 0,-3.11743 2.12203,-5.25401 4.70196,-4.7342 2.44689,0.49301 1.96077,4.85947 -1.80204,16.18615 -9.6577,29.07127 -33.0577,51.27593 -63.39992,60.16125 -7.16597,2.09846 -11.64916,2.70884 -22,2.99528 -7.15,0.19787 -15.33175,-0.0595 -18.18166,-0.57196 z m 64.25422,-38.89812 c 3.00481,-4.54057 2.87527,-7.43168 -0.3536,-7.892 -1.79372,-0.25572 -2.58114,0.44484 -3.81255,3.39203 -1.55367,3.71845 -1.21918,8.43025 0.59845,8.43025 0.53172,0 2.13719,-1.76863 3.5677,-3.93028 z m -73.81487,-94.08769 c 2.29497,-3.50974 3.92033,-4.98607 5.5,-4.99569 4.93753,-0.0301 6.86269,-1.2904 9.29102,-6.08247 1.34821,-2.66056 2.45129,-6.44969 2.45129,-8.42029 0,-1.97059 0.73481,-5.00387 1.63291,-6.7406 1.61924,-3.13126 1.60644,-3.17979 -1.52797,-5.79652 -2.97627,-2.48469 -3.73211,-2.63034 -12.94097,-2.49365 -8.01685,0.11899 -10.58091,0.55524 -14.22203,2.41972 -8.08656,4.14083 -9.13468,7.96817 -3.03437,11.08031 3.2185,1.64196 4.0202,2.66014 4.54627,5.77394 0.43602,2.58076 0.1234,4.81339 -0.98512,7.03548 -1.81934,3.64694 -1.26137,8.58682 1.29756,11.48774 2.50926,2.8446 4.53658,2.01556 7.99141,-3.26797 z m 16.20354,3.09041 c 0.56738,-1.06016 0.76007,-2.63516 0.4282,-3.5 -1.26197,-3.28862 -5.38943,-0.89339 -5.38943,3.12756 0,2.90285 3.46768,3.16317 4.96123,0.37244 z"
       id="path836"
       inkscape:connector-curvature="0"
       sodipodi:nodetypes="csssccssccsssccccscscsccccssccsssssccssccscsccccsccccsssccccssssscsscssssssccccsccscsccssccscssccccccssssssscscsssccssscsscccscscssssscsssccssccsc" />
  </g>
</svg>
