<svg xmlns="http://www.w3.org/2000/svg" width="230" height="110" viewBox="0 0 60.854 29.104" xmlns:v="https://vecta.io/nano"><path d="M58.133.101l-.001.001a1.99 1.99 0 0 0-.693.11 2.13 2.13 0 0 0-.782.49c-.018.018-.026.044-.043.063l-.186-.157c-.092-.06-.187-.113-.286-.165-.199-.103-.392-.194-.636-.257-.222-.057-.45-.083-.674-.08h-.001l-.001.001c-.578.009-1.142.211-1.635.556-.25.174-.345.294-.55.495l-.562.583c-.049.057-.136.14-.213.327-.045.108-.037.159-.044.233-.191.013-.371.096-.506.231l-.232.244-.233.245c-.287.302-.291.775-.009 1.083l.136.149.479.502.327.338c.314.323.833.321 1.144-.005l.237-.248.237-.248c.063-.067.114-.145.151-.23.024.013.002.014.09.041.028.009.036.005.06.011l.098.106-.447.427-.429.364h-.001c-.072.038-.037.025-.373.125a1.83 1.83 0 0 0-1.25 2.12l.006.022v4.581l-.044-.004-11.136-.007-.016-3.26h3.017a1.6 1.6 0 0 0 1.585-1.585v-.192l.745.419-.058-.036a1.52 1.52 0 0 0 .365.193.94.94 0 0 0 .706-.005c.302-.124.49-.435.543-.641.044-.173.042-.308.03-.441l-.038-4.166c.002-.152.006-.31-.095-.538a1.07 1.07 0 0 0-.753-.543c0 0-.051-.005-.128-.001V1.35c-.282.021-.415.108-.532.178l-.785.451v-.119A1.6 1.6 0 0 0 43.132.274h-7.072a1.6 1.6 0 0 0-1.586 1.585v5.442a1.6 1.6 0 0 0 1.586 1.585h.89l.054 3.259h-.15-11.041V7.101l.234.002c.068.111.127.232.195.375l.483.982a1.57 1.57 0 0 0 .131.204c.027.036.054.072.121.134.033.031.074.07.172.123s.303.166.634.055c0 0 .139-.06.181-.087.026-.017.04-.029.057-.043.118.087.258.14.405.152.342 0 .398-.103.454-.142s.079-.062.099-.081l.072-.074.075-.092.093-.12c.228-.296.219-.712-.023-.997.02-.035.041-.062.063-.131.016-.051.038-.198.038-.198s-.039-.298-.039-.298a2.18 2.18 0 0 0 .645-.406c1.261-1.031 1.206-3.045-.132-3.993-.372-.267-.915-.584-1.607-.497l.102-.006-5.155-.02C22.321.895 21.098.18 19.725.215l.054.001-.195-.003c-2.001.018-3.738 1.54-4.063 3.503-.399 2.031.816 4.117 2.78 4.772 1.43.524 3.047.205 4.182-.775v4.432h-.07l-1.265-.001h-.001-9.755-.031v-4.63l.041-1.33-.011-1.616c-.015-.179-.064-.367-.13-.536a1.11 1.11 0 0 0 .437-.368c.168-.247.218-.647.099-.935-.238-.576-.719-.7-1.168-.742l-.274-.025c-.102-.227-.222-.449-.351-.656-.184-.294-.309-.54-.628-.76S8.759.302 8.453.259h-.001C7.956.189 7.159.173 6.276.173h-.001L4.1.259c-.306.043-.605.068-.924.288s-.443.466-.627.76c-.129.206-.249.428-.351.655l-.274.025c-.449.042-.929.165-1.167.741-.119.288-.07.688.098.935.124.183.278.287.437.368a1.95 1.95 0 0 0-.13.536c-.03.353-.024.807-.011 1.616l.061 1.58c.019.172.043.323.112.499s.223.375.362.478c.271.202.448.212.642.241a2.93 2.93 0 0 0 .605.023c.246-.014.45-.02.719-.134.132-.056.258-.158.363-.269l.088-.015a11.43 11.43 0 0 1 .862-.067l1.281-.03 1.203.026.737.049v3.837c-3.222.818-5.618 3.715-5.618 7.182v1.98c0 4.097 3.341 7.44 7.438 7.44h40.906c4.098 0 7.438-3.342 7.438-7.44v-1.98c0-2.8-1.571-5.221-3.866-6.487V8.31c.171-.216.313-.473.38-.732.001-.004.124-.259.339-.528.123-.154.302-.333.464-.506l.64.696.927 1.011.301.323.096.101c.013.014.025.025.04.04s-.012.006.107.09c.297.211.716.231 1.018.099h.001c.25-.11.201-.122.238-.154a2.51 2.51 0 0 0 .105-.095 6.05 6.05 0 0 0 .227-.23c.097-.103.183-.184.287-.329s.247-.449.199-.761-.195-.476-.301-.599-.213-.225-.347-.359l-1.698-1.682.043-.043c.187-.184.287-.278.325-.309s.007-.011.084-.05c.096-.049.163-.071.309-.087.307-.034.626-.129.884-.283.703-.418 1.095-1.19.993-2.006v-.001l-.014-.115c-.125-.478-.652-.727-1.101-.52.25-.473-.03-1.052-.556-1.151l-.095-.014h-.001c-.085-.012-.164-.017-.246-.017h-.001z" fill="#fff" stroke="none"/><path d="M36.065 1.068a.79.79 0 0 0-.792.792v5.441a.79.79 0 0 0 .792.792h7.073a.79.79 0 0 0 .792-.792V5.657 3.448 1.859a.79.79 0 0 0-.792-.792zm2.304.935h.023c.168.003.361.055.575.179l2.812 1.642c.391.226.871.943.02 1.51l-.462.288.397.532-.589-.424-1.857-1.318-2.358 1.647.648-.752.031-2.555c-.003-.311.271-.743.76-.749zm-.4 2.007v1.035l.539-.415v-.62zm1.319.777l1.533 1.089-2.125 1.229c-.422.191-1.04-.156-1.102-.646 0 0-.025.068-.02-.47zm-.397.521v.326h.326v-.326zm.389 0v.326h.326v-.326zm-.389.381v.326h.326v-.326zm.389 0v.326h.326v-.326zm6.805-3.547a.41.41 0 0 0-.17.066l-1.52.874-.013 2.923 1.476.83c.275.188.447.181.403-.231l-.038-4.185c.003-.187-.037-.271-.118-.278zM58.141.895a1.46 1.46 0 0 0-.436.067 1.21 1.21 0 0 0-.483.302 1.25 1.25 0 0 0-.372.806 1.95 1.95 0 0 1-.075.361c-.102.304-.173.404-.592.828l-.383.398c0 .005.18.19.401.41.337.336.406.396.432.376.017-.013.183-.173.368-.356.377-.371.422-.408.606-.501s.36-.143.581-.168c.239-.027.398-.076.566-.176.419-.249.67-.752.611-1.225l-.014-.115-.42.42c-.322.322-.432.42-.47.42a4.5 4.5 0 0 1-.69-.227c-.021-.02-.263-.684-.263-.722 0-.007.194-.207.43-.444l.429-.431-.095-.014c-.038-.005-.082-.008-.13-.008zm-3.293.004c-.401.006-.81.146-1.194.413-.137.095-.737.684-.967.948-.086.099-.092.112-.095.228a.6.6 0 0 1-.564.581l-.128.006-.232.244-.233.245.136.149.464.486.328.338.237-.249.237-.248-.003-.099a.62.62 0 0 1 .468-.607l.105-.024.217.159.26.172c.024.007.075 0 .113-.017l.07-.029.002.002.581-.621-.002-.003.028-.053a.26.26 0 0 0 .028-.098c0-.025-.12-.223-.267-.442l-.267-.397.133-.111c.268-.222.523-.359.772-.417a1.58 1.58 0 0 1 .671.012c.173.046.242.041.345-.022.057-.035.062-.045.04-.071-.094-.113-.571-.36-.822-.424a1.75 1.75 0 0 0-.465-.055zm-.01 2.301l-.587.626 2.646 2.877 1.347 1.455a.24.24 0 0 0 .241.019c.03-.013.17-.146.311-.296.395-.42.398-.402-.144-.94l-2.201-2.18zm-.018 1.444c.006-.008-.13.124-.122.124l.122-.124zm-.122.124c-.504.503-1.167 1.124-1.394 1.244-.11.058-.175.081-.516.183-.505.151-.81.672-.7 1.197a1.06 1.06 0 0 0 .752.779 1.04 1.04 0 0 0 .974-.267c.147-.144.227-.29.288-.526.119-.458.728-1.147 1.355-1.772-.007-.032-.734-.836-.759-.838zm.759.838c.003.013.274-.273 0 0zm-2.368.903c.357 0 .646.289.646.646s-.289.646-.646.646-.645-.289-.645-.646.289-.646.645-.646zM4.216 1.045c-.601.085-.626.102-.989.683a4.66 4.66 0 0 0-.5 1.125l-.06.292c-.004-.013-.015-.023-.03-.023-.102-.001-.025-.223-.093-.293-.126-.13-.305-.073-.541-.051-.561.052-.707.428-.257.599.149.057.379.206.447.333.1.187.086.271-.074.449-.177.197-.194.403-.169 2.013.025 1.557.053 1.812.216 1.933.111.083.406.127.727.108.439-.026.559-.077.646-.274.105-.24 2.716-.243 2.716-.243s2.668.003 2.774.243c.087.198.206.248.646.274.32.019.615-.025.727-.108.163-.121.191-.376.216-1.933.026-1.611.007-1.816-.169-2.013-.16-.178-.174-.262-.074-.449.068-.126.298-.276.447-.333.45-.171.304-.546-.257-.599-.236-.022-.415-.079-.541.051-.068.07.011.292-.093.293-.016 0-.026.01-.03.023a3.32 3.32 0 0 0-.06-.292c-.07-.291-.295-.797-.5-1.125-.363-.581-.389-.599-.989-.683C7.977.993 7.149.966 6.282.966l-2.066.079zm2.754.212c2.183.056 2.051.055 2.417 1.012.324.848.536.796-3.076.764v-.001h-.029-.029v.001c-3.612.032-3.4.085-3.076-.764.365-.957.233-.957 2.417-1.012l.688-.009.688.009m-.688-.009c.226-.005-.23 0 0 0zm-3.391 1.82a.37.37 0 0 1 .106.029c.1.038.202.07.227.07s.045.09.045.2.146.401.324.647c.076.105.051.153-.005.173l-.07-.076a3.68 3.68 0 0 1-.517-.717c-.121-.24-.157-.321-.109-.326zm6.781 0c.048.005.011.086-.109.326a3.68 3.68 0 0 1-.517.717l-.07.076c-.056-.02-.081-.068-.005-.173.178-.246.324-.537.324-.647s.02-.2.045-.2.127-.031.227-.07a.44.44 0 0 1 .095-.029zm-6.927.861c.181-.001.405.088.611.262-.039 0 .505.366.611.483.158.175.169.243.057.377-.186.224-.393.201-1.041-.112-.567-.274-.734-.527-.559-.841.063-.113.179-.169.32-.17zm7.073 0c.141.001.257.056.32.17.176.314.007.567-.559.841-.648.314-.855.336-1.041.112-.111-.134-.101-.203.057-.377.106-.118.65-.483.611-.483.207-.174.43-.263.611-.262zm-3.219.855c0 .053-.14.118-.319.127-.179-.009-.315-.074-.315-.127s.127-.112.317-.112.317.057.317.112zm-.346 1.533c-1.897.032-2.219-.01-2.38-.272-.1-.162-.053-.256.283-.566a1.47 1.47 0 0 1 1.041-.335l1.084-.015 1.085.008c.338.001.601.02 1.041.342.337.311.383.404.283.566-.161.262-.54.304-2.437.272m.029.54h0l2.204.03-.243.243c-.23.23-.348.243-1.956.243-1.58 0-1.739-.014-1.967-.243l-.243-.243zm3.43 6.088a6.65 6.65 0 0 0-6.344 6.639v1.98a6.65 6.65 0 0 0 6.645 6.646h40.906a6.65 6.65 0 0 0 6.645-6.646v-1.98c0-3.005-1.998-5.545-4.737-6.366l-1.552-.272c.029.001.056.002-.002.002l-13.146-.009h-1.266-14.44l-1.266-.001H11.4z"/><path d="M10.011 14.488c-2.836 0-5.094 2.259-5.094 5.096v1.98c0 2.836 2.257 5.096 5.094 5.096h40.906c2.836 0 5.096-2.259 5.096-5.096v-1.98c0-2.836-2.259-5.096-5.096-5.096z" fill="#aa072d"/><path d="M51.016 17.864h1.416v2.008h2.008v1.403h-2.008v2.008h-1.416v-2.008h-2.008v-1.403h2.008zm-44.525.084h.736v2.316l.969-2.316h.82l-.958 1.972 1.113 2.938h-.82l-.697-2.105-.427.879v1.227h-.736zm8.814 0h.736v1.846c.066-.139.149-.25.25-.333a.71.71 0 0 1 .462-.168c.234 0 .413.078.537.236s.189.385.189.682v2.647h-.736v-2.445c0-.146-.03-.256-.088-.328s-.146-.111-.263-.111-.205.037-.264.111-.088.186-.088.334v2.438h-.736zm7.848 0h.429v.696h-.355c-.074 0-.132.026-.172.078s-.057.119-.057.203v.429h.584v.659h-.584v2.847h-.736v-2.847h-.331v-.659h.331v-.476c0-.308.073-.54.22-.696s.37-.233.672-.233zm5.011 0h.736v3.914c0 .09.02.16.061.21s.103.071.179.071h.148v.716H29c-.266 0-.471-.081-.618-.243s-.22-.391-.22-.686zm1.597 0h.736v3.914c0 .09.02.16.061.21s.103.071.179.071h.149v.716h-.287c-.266 0-.472-.081-.618-.243s-.22-.391-.22-.686zm2.617 0h2.418v.706h-.841v4.204h-.736v-4.204h-.841zm8.803 0h.736v4.91h-.736v-.424c-.058.134-.136.243-.233.326a.67.67 0 0 1-.446.159c-.153 0-.285-.039-.395-.118s-.191-.192-.25-.341a1.56 1.56 0 0 1-.084-.544v-1.604a1.6 1.6 0 0 1 .084-.551c.059-.153.141-.269.25-.348a.65.65 0 0 1 .395-.121c.158 0 .301.055.432.165.095.081.178.185.247.312zm-29.102.024h.736v.733h-.736zm1.469.361h.736v1.02h.48v.686h-.48v1.84c0 .09.02.16.061.21s.098.071.172.071h.247v.716h-.348c-.299 0-.519-.078-.659-.233s-.209-.387-.209-.696v-1.908h-.331v-.686h.331zm-3.151.959c.225 0 .418.044.577.131s.281.216.364.385.129.373.129.611v.956H10.05v.435c0 .135.032.24.095.314s.158.108.28.108c.11 0 .195-.028.253-.084s.091-.137.091-.243v-.071l.709.003v.061c0 .322-.093.571-.277.747s-.444.263-.777.263c-.23 0-.425-.044-.587-.132a.88.88 0 0 1-.371-.381c-.086-.169-.129-.372-.129-.608v-1.31c0-.25.042-.464.125-.642s.204-.313.361-.405a1.13 1.13 0 0 1 .574-.138zm10.1 0h.04c.216 0 .4.038.553.114s.269.185.348.331.121.319.121.523v1.671c0 .205-.04.381-.121.527a.78.78 0 0 1-.348.334c-.153.077-.337.115-.553.115a1.25 1.25 0 0 1-.557-.115.82.82 0 0 1-.351-.338c-.081-.149-.121-.326-.121-.533v-1.661c0-.205.04-.379.121-.523a.78.78 0 0 1 .351-.331 1.22 1.22 0 0 1 .517-.114zm5.902 0c.223 0 .413.04.571.121s.277.196.358.351.125.338.125.554v2.539h-.706v-.345l-.02.048a.55.55 0 0 1-.229.26c-.101.059-.225.088-.371.088-.275 0-.483-.083-.625-.25s-.209-.414-.209-.743c0-.385.093-.675.28-.871s.469-.294.838-.294h.337v-.432c0-.117-.031-.207-.094-.27s-.152-.098-.267-.098c-.099 0-.177.033-.233.098s-.081.153-.081.27h-.709c0-.326.09-.579.27-.757s.438-.27.766-.27zm10.1 0v.763h-.071-.094c-.23 0-.41.062-.54.186s-.194.289-.196.503v2.114h-.736v-3.505h.736v.486c.096-.152.211-.275.345-.368.169-.119.354-.179.557-.179zm1.581 0c.223 0 .413.04.57.121s.277.196.358.351.125.338.125.554v2.539h-.706v-.345l-.02.048a.55.55 0 0 1-.229.26c-.101.059-.225.088-.371.088-.275 0-.483-.083-.625-.25s-.21-.414-.21-.743c0-.385.094-.675.28-.871s.468-.294.837-.294h.338v-.432c0-.117-.031-.207-.094-.27s-.152-.098-.267-.098c-.099 0-.177.033-.233.098s-.081.153-.081.27h-.709c0-.326.09-.579.27-.757s.438-.27.767-.27zm5.535 0c.225 0 .418.044.577.131s.281.216.364.385.129.373.129.611v.956h-1.418v.435c0 .135.032.24.095.314s.158.108.28.108c.11 0 .195-.028.253-.084s.091-.137.091-.243v-.071l.709.003v.061c0 .322-.092.571-.277.747s-.444.263-.777.263c-.23 0-.425-.044-.587-.132a.88.88 0 0 1-.371-.381c-.086-.169-.129-.372-.129-.608v-1.31c0-.25.041-.464.125-.642s.204-.313.362-.405a1.13 1.13 0 0 1 .574-.138zm2.597 0c.205 0 .383.04.534.121a.85.85 0 0 1 .351.351 1.08 1.08 0 0 1 .125.53v.04l-.706.003v-.047c0-.106-.027-.189-.081-.25s-.128-.091-.223-.091-.165.034-.22.101-.081.155-.081.27c0 .09.021.165.064.226s.102.105.172.138.161.07.273.108l.027.01.023.01c.176.059.32.122.432.189s.212.168.29.307.121.323.121.557c0 .209-.044.393-.132.55a.9.9 0 0 1-.375.365c-.162.083-.352.125-.57.125a1.2 1.2 0 0 1-.568-.128.94.94 0 0 1-.378-.371c-.088-.16-.132-.347-.132-.561v-.04l.702-.003v.04c0 .124.034.223.101.297s.159.108.274.108.205-.035.27-.105a.38.38 0 0 0 .101-.277c0-.086-.021-.157-.064-.213s-.097-.101-.162-.135a2.73 2.73 0 0 0-.277-.118l-.044-.014c-.013-.007-.028-.012-.044-.017l-.034-.013c-.153-.063-.285-.132-.395-.206a.92.92 0 0 1-.277-.314c-.072-.135-.108-.305-.108-.51a1.18 1.18 0 0 1 .121-.547c.083-.158.2-.278.351-.362s.331-.128.534-.128zm-34.133.061h.736v3.505h-.736zm-1.682.601a.3.3 0 0 0-.26.128c-.059.083-.088.203-.088.358v.368h.709v-.402c0-.144-.031-.255-.094-.334s-.152-.118-.267-.118zm33.218 0a.3.3 0 0 0-.26.128c-.059.083-.088.203-.088.358v.368h.709v-.402c0-.144-.032-.255-.095-.334s-.152-.118-.266-.118zm-2.773.017c-.108 0-.193.037-.253.111s-.091.179-.091.314v1.448c0 .124.03.221.091.29s.145.101.253.101c.072 0 .133-.015.182-.047s.087-.078.114-.139.041-.135.041-.223V20.39a.57.57 0 0 0-.041-.226c-.027-.063-.065-.11-.114-.142s-.11-.051-.182-.051zm-20.308.007a.28.28 0 0 0-.216.088c-.052.059-.078.14-.078.243v1.573c0 .108.026.191.078.25s.124.088.216.088.166-.028.216-.084.078-.143.078-.253v-1.573c0-.106-.026-.187-.078-.243s-.121-.088-.216-.088zm5.899 1.391c-.146 0-.257.046-.331.138s-.111.228-.111.409c0 .119.028.209.084.27s.14.088.25.088c.137 0 .242-.038.314-.115s.108-.19.108-.341v-.449zm11.681 0c-.146 0-.257.046-.331.138s-.111.228-.111.409c0 .119.028.209.084.27s.139.088.25.088c.137 0 .242-.038.314-.115s.108-.19.108-.341v-.449z" fill="#fff"/><path d="M19.751 1.009c-1.647-.07-3.183 1.233-3.444 2.849-.323 1.618.693 3.363 2.26 3.88a3.47 3.47 0 0 0 3.757-.978c.214-.162.264-.56.595-.46l3.137.008c-.145-.292-.54-.936.076-.579l1.567.557c.586.009 1.233.007 1.689-.423.852-.672.818-2.125-.071-2.753-.305-.219-.663-.404-1.047-.356l-5.535-.022c-.613-1.037-1.764-1.757-2.984-1.726zm-.212.427v.71.709l-.192-.004-.273-.021-.414-.082c-.183-.036-.334-.074-.334-.084s.068-.148.15-.305a2.02 2.02 0 0 1 1.062-.923zm.283 0a1.74 1.74 0 0 1 .735.444c.195.211.477.663.477.766 0 .023-.123.07-.273.104s-.422.074-.606.09l-.333.028v-.716zm-1.244.208c.016 0-.041.094-.129.21a3.72 3.72 0 0 0-.288.465c-.071.14-.14.254-.153.253-.051-.005-.449-.217-.447-.238.007-.083.899-.687 1.018-.689zm2.215.017c.03.003.14.053.271.122.294.155.737.484.737.547 0 .021-.068.073-.151.116-.298.15-.302.149-.424-.112a2.7 2.7 0 0 0-.272-.442l-.163-.228zm-3.447.915l.576.297c-.045.176-.175.817-.189 1.023l-.025.374h-.504-.504l.027-.241a3.75 3.75 0 0 1 .62-1.453zm4.678.005l.09.107c.236.278.481.904.553 1.411l.024.171h-.498-.498l-.049-.414a6.41 6.41 0 0 0-.124-.705l-.075-.291.288-.14zm-3.812.368l.309.074a4.94 4.94 0 0 0 .664.101l.354.026v1.12h-.768-.769l.001-.171c0-.219.128-.859.209-1.149zm2.95 0l.036.092c.043.113.144.675.18.996l.026.232h-.793-.792l.022-1.111.367-.03c.202-.017.499-.064.66-.105zm7.257.773l.055.188.114.43c.033.133.067.235.075.228s.065-.196.129-.419l.116-.406.132-.011c.073-.006.133.003.133.021 0 .029-.095.363-.305 1.067l-.089.294h-.137-.137l-.073-.276-.116-.449c-.052-.211-.064-.192-.193.324l-.1.4h-.134c-.074 0-.142-.015-.153-.033a27.16 27.16 0 0 1-.411-1.33c0-.016.075-.023.166-.017l.166.01.119.407.132.419c.007.007.06-.175.117-.406l.105-.42.147-.01zm-4.054.003l.084.007.148.012.113.426c.062.235.122.404.133.374a12.28 12.28 0 0 0 .126-.421l.122-.385c.01-.009.072-.012.139-.006l.122.012-.2.675-.2.676h-.141-.141l-.115-.423-.129-.438c-.008-.008-.049.127-.091.299-.157.633-.131.58-.288.58-.076 0-.145-.011-.153-.026a20.21 20.21 0 0 1-.174-.548l-.229-.752c-.016-.053.007-.062.153-.062h.171l.122.426.137.413c.008-.008.046-.14.085-.294.121-.481.126-.546.205-.546zm1.92.001v.001.001.001h.085l.146.012.107.417.123.403a5.04 5.04 0 0 0 .131-.418l.116-.402.129-.012c.089-.008.13.004.129.036-.001.026-.087.335-.191.687l-.188.641-.143.009-.142.011-.079-.313c-.143-.577-.15-.599-.179-.544a4.64 4.64 0 0 0-.125.452l-.098.4h-.136c-.075 0-.144-.011-.152-.026a36.31 36.31 0 0 1-.415-1.343c0-.012.075-.018.167-.012l.167.012.112.374.129.426c.016.047.056-.082.208-.668.03-.114.038-.144.102-.147zm-9.585.867h.511.51v.221a6.52 6.52 0 0 0 .185 1.101c.023.078-.007.104-.251.219l-.297.144c-.025.015-.24-.309-.354-.534a3.12 3.12 0 0 1-.276-.91zm1.303 0h.769.768v1.132l-.233.001a3.76 3.76 0 0 0-.535.058l-.43.083c-.117.025-.131.017-.173-.11a5.18 5.18 0 0 1-.166-.992zm1.817 0h.789c.605 0 .789.012.788.051-.004.153-.088.696-.147.949-.077.33-.069.326-.458.228a4.56 4.56 0 0 0-.587-.086l-.364-.03zm1.877 0h.498.498l-.024.172a3.26 3.26 0 0 1-.301.98c-.086.178-.199.373-.25.433l-.092.108-.573-.298.073-.283a6.45 6.45 0 0 0 .123-.697zM19.54 5.996l-.01 1.425c-.249-.044-.593-.275-.805-.541-.136-.171-.398-.621-.398-.685 0-.036.585-.151.895-.175zm.283 0l.318.024c.392.03.894.142.894.198 0 .092-.269.539-.437.726-.098.109-.254.242-.346.296-.212.124-.374.185-.405.154-.013-.013-.024-1.397-.024-1.397zm-1.802.295c.012 0 .068.1.125.221s.186.331.285.465l.169.243c-.136-.012-.754-.407-.933-.597l-.114-.121.223-.106.245-.106zm3.362.02c.149.046.42.183.42.22 0 .02-.104.12-.232.221-.218.174-.778.499-.778.451a1.77 1.77 0 0 1 .161-.234 3.07 3.07 0 0 0 .271-.446c.076-.159.11-.211.158-.213zm5.187.059zm.007.005c.086.09.665 1.366.85 1.7.047.085.098.152.112.147s.185-.401.24-.545c.007-.007.485.378.654.526.015 0 .129-.156.175-.212a9.2 9.2 0 0 1-.607-.554c.143-.077.516-.309.511-.323-.009-.026-1.808-.677-1.935-.739zM8.986 7.514v6.455h1.588V7.514z"/><g fill="none" stroke="#000" stroke-linejoin="round"><path d="M24.155 13.969V6.191" stroke-width="1.743"/><path d="M38.529 13.969V7.514" stroke-width="1.588"/></g><path d="M52.111 7.514v6.455h1.586V7.982c-.586.003-1.086-.234-1.586-.468z"/></svg>