<?xml version="1.0" encoding="UTF-8" standalone="no"?>
<!-- Created with Inkscape (http://www.inkscape.org/) -->

<svg
   xmlns:dc="http://purl.org/dc/elements/1.1/"
   xmlns:cc="http://creativecommons.org/ns#"
   xmlns:rdf="http://www.w3.org/1999/02/22-rdf-syntax-ns#"
   xmlns:svg="http://www.w3.org/2000/svg"
   xmlns="http://www.w3.org/2000/svg"
   xmlns:sodipodi="http://sodipodi.sourceforge.net/DTD/sodipodi-0.dtd"
   xmlns:inkscape="http://www.inkscape.org/namespaces/inkscape"
   version="1.1"
   id="svg2"
   width="408"
   height="161"
   viewBox="0 0 408 161"
   sodipodi:docname="movieDB.svg"
   inkscape:version="0.92.5 (2060ec1f9f, 2020-04-08)">
  <metadata
     id="metadata8">
    <rdf:RDF>
      <cc:Work
         rdf:about="">
        <dc:format>image/svg+xml</dc:format>
        <dc:type
           rdf:resource="http://purl.org/dc/dcmitype/StillImage" />
        <dc:title></dc:title>
      </cc:Work>
    </rdf:RDF>
  </metadata>
  <defs
     id="defs6" />
  <sodipodi:namedview
     pagecolor="#ffffff"
     bordercolor="#666666"
     borderopacity="1"
     objecttolerance="10"
     gridtolerance="10"
     guidetolerance="10"
     inkscape:pageopacity="0"
     inkscape:pageshadow="2"
     inkscape:window-width="1366"
     inkscape:window-height="715"
     id="namedview4"
     showgrid="false"
     inkscape:zoom="1.3136935"
     inkscape:cx="236.81713"
     inkscape:cy="92.196829"
     inkscape:window-x="-8"
     inkscape:window-y="-8"
     inkscape:window-maximized="1"
     inkscape:current-layer="svg2" />
  <g
     id="g817"
     transform="translate(1.0771088,8.606499)">
    <path
       style="fill:#000000"
       d="m -1.1019474,81.814991 c 0,-52.777639 0.30957888,-71.720899 1.22232326,-74.7944492 1.60723524,-5.41217 8.98153374,-12.78647 14.39369714,-14.3937 5.986144,-1.77769 370.781817,-1.77769 376.767957,0 5.41216,1.60723 12.78646,8.98153 14.3937,14.3937 1.53464,5.1677302 1.75762,109.0306882 0.24539,114.3035382 -1.72646,6.01982 -5.90963,10.87716 -11.90172,13.81983 l -5.62135,2.76061 -179.25,0.2634 c -98.5875,0.14487 -179.249997,-0.0942 -179.249997,-0.5313 0,-0.43709 2.595441,-3.36307 5.767647,-6.50217 l 5.767647,-5.70747 172.482353,-0.26123 c 187.75943,-0.28437 174.8384,0.13821 178.36586,-5.83332 1.43358,-2.42685 1.61649,-8.69913 1.61649,-55.432208 v -52.6957 l -3.4,-3.4000002 -3.4,-3.4 h -184.2 -184.199997 l -3.4,3.4 -3.4,3.4000002 -0.03165,63.35 -0.03165,63.349998 -6.4683527,7.29445 -6.4683477,7.29446 z M 227.9903,87.225905 c -2.17017,-4.697328 -5.97301,-12.878773 -8.45075,-18.180993 l -4.50498,-9.64039 h 4.22603 4.22603 l 4.43633,9.05082 4.43633,9.05082 4.49457,-9.05082 4.49457,-9.05082 h 4.2141 4.2141 l -7.9925,17.25 c -4.39587,9.487496 -8.40999,17.668946 -8.92027,18.180986 -0.57129,0.57326 -2.44397,-2.35077 -4.87356,-7.609603 z M 49.612113,93.785248 c -0.392733,-0.39274 -0.71406,-6.714063 -0.71406,-14.047397 V 66.404522 h -4 c -3.904762,0 -4,-0.0833 -4,-3.5 v -3.5 h 12 12 v 3.5 c 0,3.41252 -0.09927,3.5 -3.97178,3.5 h -3.971781 l -0.278219,13.749996 -0.27822,13.75 -3.03594,0.29739 c -1.669767,0.16357 -3.357267,-0.0239 -3.75,-0.41666 z m 20.28594,-16.880726 v -17.5 h 3.45431 3.45431 l 0.29569,6.75 0.29569,6.75 4.75,0.30479 4.75,0.30479 v -7.05479 -7.05479 h 4 4 v 17.56036 17.560366 l -3.75,-0.31036 -3.75,-0.31037 -0.29569,-6.75 -0.29569,-6.75 h -4.95431 -4.95431 v 7 7 h -3.5 -3.5 z m 30.700457,16.867126 c -0.38525,-0.38526 -0.700457,-8.275463 -0.700457,-17.533796 v -16.83333 h 9.999997 10 v 3.5 3.5 h -6 -6 v 3.5 3.5 h 5.5 5.5 v 3.5 3.499996 h -5.5 c -5.42469,0 -5.5,0.04042 -5.5,2.952283 0,2.923043 0.0619,2.955231 6.25,3.25 l 6.25,0.297717 v 3.5 3.5 l -9.54954,0.28379 c -5.25225,0.15609 -9.86475,-0.0314 -10.25,-0.41666 z m 40.29954,-17.367126 c 0,-13.7514 0.29504,-17.99201 1.25,-17.96613 0.6875,0.0186 4.175,3.38883 7.75,7.48933 3.575,4.10051 6.7283,7.46027 7.00733,7.46613 0.27903,0.006 3.42903,-3.33407 7,-7.42208 3.57097,-4.08802 7.05517,-7.46302 7.74267,-7.5 0.95619,-0.0515 1.25,4.16355 1.25,17.93275 v 17.999996 h -3.5 -3.5 V 84.69631 74.988102 l -4.5,4.416416 -4.5,4.416416 -4.5,-4.416416 -4.5,-4.416416 v 9.708208 9.708208 h -3.5 -3.5 z m 48.00051,16.929816 c -6.28096,-2.638427 -10.24824,-8.931969 -10.35661,-16.429346 -0.13627,-9.42724 5.80799,-16.6959 14.75047,-18.0369 19.30705,-2.89528 29.01879,21.179521 13.28307,32.927926 -3.12118,2.3303 -13.61715,3.2437 -17.67693,1.53832 z m 14.08587,-8.507996 c 4.66747,-4.224001 4.45552,-13.528 -0.38541,-16.91872 -2.76145,-1.9342 -9.64049,-1.9342 -12.40194,0 -2.71749,1.9034 -4.64647,7.63852 -3.82585,11.374776 0.62724,2.855805 3.66421,6.327803 6.52682,7.461738 2.4236,0.960034 8.09877,-0.119024 10.08638,-1.917794 z m 50.91362,-7.92182 v -17.5 h 3.5 3.5 v 17.5 17.499996 h -3.5 -3.5 z m 13,0 v -17.5 h 9.5 9.5 v 3.5 3.5 h -6 -6 v 3.5 3.5 h 5.5 5.5 v 3.5 3.499996 h -5.5 -5.5 v 3.5 3.5 h 6.5 6.5 v 3.5 3.5 h -10 -10 z m 40,0.10261 v -17.60261 h 6.78811 c 11.13781,0 18.25083,4.77643 20.22986,13.58446 1.60167,7.128494 -1.17636,14.204125 -7.40234,18.853746 -2.15467,1.60913 -4.61103,2.13921 -11.18821,2.41441 l -8.42742,0.35261 z m 14.85497,8.972382 c 8.49517,-4.39302 5.69944,-17.430272 -4.10497,-19.142632 l -3.75,-0.65495 v 10.61129 10.611296 h 2.54966 c 1.40231,0 3.7897,-0.641252 5.30531,-1.425004 z m 18.14503,-9.074992 v -17.5 h 8.42327 c 7.57876,0 8.72834,0.25669 11.466,2.56028 3.78982,3.18892 4.88279,8.04603 2.74208,12.18571 -1.34347,2.59799 -1.35921,3.23519 -0.1203,4.87148 3.04124,4.016721 1.07866,11.509093 -3.65608,13.957526 -1.71546,0.8871 -5.7942,1.425 -10.80531,1.425 h -8.04966 z m 15.83749,7.613086 c 0.40638,-2.874084 -1.23421,-4.077266 -5.58749,-4.097777 -3.06049,-0.01442 -3.25,0.192123 -3.25,3.542185 v 3.557498 l 4.25,-0.307498 c 3.6118,-0.261323 4.30068,-0.665926 4.58749,-2.694408 z m -0.14696,-12.749016 c 1.01511,-2.64532 -1.12452,-4.84123 -5.04181,-5.17444 -3.5732,-0.30394 -3.64872,-0.23667 -3.64872,3.25 0,3.49171 0.0777,3.56037 4.03138,3.56037 2.80984,0 4.22161,-0.49571 4.65915,-1.63593 z M 40.898053,36.904522 v -7.5 h 3.8 c 4.270666,0 6.2,1.40032 6.2,4.5 0,2.74367 -1.834382,4.5 -4.7,4.5 -1.888889,0 -2.3,0.53623 -2.3,3 0,2 -0.5,3 -1.5,3 -1.2,0 -1.5,-1.5 -1.5,-7.5 z m 7,-3 c 0,-0.83334 -0.888889,-1.5 -2,-1.5 -1.111111,0 -2,0.66666 -2,1.5 0,0.83333 0.888889,1.5 2,1.5 1.111111,0 2,-0.66667 2,-1.5 z m 9.454545,8.04545 c -7.059517,-7.05952 2.896526,-17.94026 10.661944,-11.65221 3.305535,2.67666 3.305535,9.53685 0,12.21351 -3.265563,2.64429 -7.689235,2.41141 -10.661944,-0.5613 z m 8.495268,-1.98498 c 1.634589,-1.96956 0.933314,-6.61886 -1.199813,-7.9545 -2.428478,-1.52057 -5.160752,0.34533 -5.572258,3.80536 -0.564329,4.745 3.971276,7.52389 6.772071,4.14914 z m 13.107673,1.68953 c -0.69495,-1.5125 -2.110615,-4.8875 -3.145923,-7.5 -1.848546,-4.66463 -1.848088,-4.75 0.02548,-4.75 1.317834,0 2.290795,1.15972 3.146102,3.75 l 1.238246,3.75 1.654722,-3.94464 1.654722,-3.94463 1.546623,3.87767 1.546623,3.87768 1.215513,-3.68304 c 0.840036,-2.54534 1.809366,-3.68304 3.137961,-3.68304 1.057346,0 1.922448,0.14741 1.922448,0.32759 0,0.97472 -5.313522,13.31632 -6.074572,14.10928 -0.544958,0.56781 -1.353338,-0.36593 -2.052054,-2.37027 l -1.152877,-3.30714 -1.311974,3.12027 c -0.721587,1.71614 -1.486467,3.12027 -1.699734,3.12027 -0.213267,0 -0.956354,-1.2375 -1.651303,-2.75 z m 17.942514,-4.75 v -7.5 h 3.999997 c 2.88889,0 4,0.41666 4,1.5 0,0.93333 -0.94444,1.5 -2.5,1.5 -1.55556,0 -2.499997,0.56666 -2.499997,1.5 0,0.83333 0.888887,1.5 1.999997,1.5 1.11111,0 2,0.66666 2,1.5 0,0.83333 -0.88889,1.5 -2,1.5 -1.11111,0 -1.999997,0.66666 -1.999997,1.5 0,0.93333 0.944437,1.5 2.499997,1.5 1.55556,0 2.5,0.56666 2.5,1.5 0,1.08333 -1.11111,1.5 -4,1.5 h -3.999997 z m 11.999997,0 v -7.5 h 3.8 c 2.09,0 4.34,0.54 5,1.2 1.49513,1.49513 1.55798,5.04202 0.1149,6.48509 -0.78013,0.78013 -0.63239,1.96055 0.52568,4.2 1.53067,2.95999 1.51607,3.11491 -0.29358,3.11491 -1.17315,0 -2.38149,-1.15191 -3.147,-3 -0.68345,-1.65 -1.63805,-3 -2.12132,-3 -0.48327,0 -0.87868,1.35 -0.87868,3 0,2 -0.5,3 -1.5,3 -1.2,0 -1.5,-1.5 -1.5,-7.5 z m 7,-3 c 0,-0.83334 -0.88889,-1.5 -2,-1.5 -1.11111,0 -2,0.66666 -2,1.5 0,0.83333 0.88889,1.5 2,1.5 1.11111,0 2,-0.66667 2,-1.5 z m 8,3 v -7.5 h 4 c 2.88889,0 4,0.41666 4,1.5 0,0.93333 -0.94444,1.5 -2.5,1.5 -1.55556,0 -2.5,0.56666 -2.5,1.5 0,0.83333 0.88889,1.5 2,1.5 1.11111,0 2,0.66666 2,1.5 0,0.83333 -0.88889,1.5 -2,1.5 -1.11111,0 -2,0.66666 -2,1.5 0,0.93333 0.94444,1.5 2.5,1.5 1.55556,0 2.5,0.56666 2.5,1.5 0,1.08333 -1.11111,1.5 -4,1.5 h -4 z m 12,0 v -7.5 h 3.82569 c 2.70597,0 4.46206,0.67739 6,2.31445 4.81352,5.12375 1.15341,12.68555 -6.14014,12.68555 h -3.68555 z m 7.42857,2.92857 c 0.86429,-0.86429 1.57143,-2.18215 1.57143,-2.92857 0,-1.78211 -2.76103,-4.5 -4.57143,-4.5 -1.02645,0 -1.42857,1.26666 -1.42857,4.5 0,4.8622 1.5018,5.85533 4.42857,2.92857 z m 17.57143,-2.92857 v -7.5 h 3.87756 c 4.92031,0 5.95577,1.30394 5.95577,7.5 0,6.19605 -1.03546,7.5 -5.95577,7.5 h -3.87756 z m 7,3 c 0,-0.83334 -0.88889,-1.5 -2,-1.5 -1.11111,0 -2,0.66666 -2,1.5 0,0.83333 0.88889,1.5 2,1.5 1.11111,0 2,-0.66667 2,-1.5 z m -0.69718,-5.98631 c 0.10845,-0.54247 -0.59032,-1.13796 -1.55282,-1.32332 -1.0946,-0.2108 -1.75,0.27967 -1.75,1.30963 0,1.73978 2.9553,1.75204 3.30282,0.0137 z m 11.69718,7.41438 c 0,-1.68957 -1.16776,-5.06457 -2.59502,-7.5 -2.42611,-4.13984 -2.46965,-4.42807 -0.66898,-4.42807 1.05932,0 2.53777,1.14301 3.28543,2.54004 l 1.35939,2.54004 1.54121,-2.54004 c 0.84766,-1.39703 2.37974,-2.54004 3.40461,-2.54004 1.70772,0 1.6466,0.36994 -0.73162,4.42807 -1.42726,2.43543 -2.59502,5.81043 -2.59502,7.5 0,2.06393 -0.49219,3.07193 -1.5,3.07193 -1.00781,0 -1.5,-1.008 -1.5,-3.07193 z"
       id="path827"
       inkscape:connector-curvature="0" />
  </g>
</svg>
