<?xml version="1.0" encoding="UTF-8" standalone="no"?>
<!-- Created with Inkscape (http://www.inkscape.org/) -->

<svg
   xmlns:dc="http://purl.org/dc/elements/1.1/"
   xmlns:cc="http://creativecommons.org/ns#"
   xmlns:rdf="http://www.w3.org/1999/02/22-rdf-syntax-ns#"
   xmlns:svg="http://www.w3.org/2000/svg"
   xmlns="http://www.w3.org/2000/svg"
   xmlns:sodipodi="http://sodipodi.sourceforge.net/DTD/sodipodi-0.dtd"
   xmlns:inkscape="http://www.inkscape.org/namespaces/inkscape"
   version="1.1"
   id="svg2"
   width="225"
   height="225"
   viewBox="0 0 225 225"
   sodipodi:docname="netlify.svg"
   inkscape:version="0.92.5 (2060ec1f9f, 2020-04-08)">
  <metadata
     id="metadata8">
    <rdf:RDF>
      <cc:Work
         rdf:about="">
        <dc:format>image/svg+xml</dc:format>
        <dc:type
           rdf:resource="http://purl.org/dc/dcmitype/StillImage" />
        <dc:title />
      </cc:Work>
    </rdf:RDF>
  </metadata>
  <defs
     id="defs6" />
  <sodipodi:namedview
     pagecolor="#ffffff"
     bordercolor="#666666"
     borderopacity="1"
     objecttolerance="10"
     gridtolerance="10"
     guidetolerance="10"
     inkscape:pageopacity="0"
     inkscape:pageshadow="2"
     inkscape:window-width="1366"
     inkscape:window-height="715"
     id="namedview4"
     showgrid="false"
     inkscape:zoom="1.0488889"
     inkscape:cx="-126.67511"
     inkscape:cy="86.811543"
     inkscape:window-x="-8"
     inkscape:window-y="-8"
     inkscape:window-maximized="1"
     inkscape:current-layer="svg2" />
  <g
     id="g817"
     transform="translate(-23.781218,-12.478446)">
    <path
       style="fill:#000000"
       d="m -202.04102,-6.4082031 -22.80078,22.3007811 -22.80273,22.298828 14.30273,6.115235 c 9.99187,4.272094 15.05424,5.942644 16.80078,5.542968 1.375,-0.314655 4.44905,-0.877295 6.83008,-1.25 l 4.32813,-0.677734 11.3164,-17.623047 11.31446,-17.625 -9.64453,-9.5410155 z M -176.88281,17.666016 -188.24219,35.125 c -15.09737,23.205592 -15.39337,21.570902 5.52344,30.464844 8.62345,3.666738 16.12773,6.697035 16.67773,6.734375 2.5675,0.174307 3.46741,-2.504439 5.9375,-17.683594 l 2.6504,-16.283203 -9.71485,-10.345703 z m -76.0293,26.755859 c -0.63726,0 -6.45376,5.307949 -12.92383,11.794922 l -11.76367,11.794922 7.18164,10.455078 c 3.9501,5.750529 10.07942,14.642999 13.61914,19.761719 5.98942,8.661194 6.64956,9.285484 9.51758,9.000004 2.81342,-0.28005 4.15361,-1.97434 15.39453,-19.472661 l 12.3125,-19.167968 -1.48242,-3.550782 c -0.81589,-1.952711 -1.48438,-4.357825 -1.48438,-5.34375 0,-1.334046 -3.73496,-3.515695 -14.60546,-8.53125 -8.03384,-3.706741 -15.12836,-6.740234 -15.76563,-6.740234 z m 102.70703,0.873047 -2.18554,13.130859 c -1.20154,7.222094 -1.92444,13.551517 -1.60743,14.064453 0.31701,0.512937 1.19026,0.931641 1.94141,0.931641 1.78477,0 20.51562,-8.163506 20.51562,-8.941406 0,-0.32859 -4.19902,-4.778957 -9.33203,-9.890625 z m -48.83594,21.53125 -3.39648,2.298828 c -1.86884,1.263828 -4.62283,2.296875 -6.11914,2.296875 -2.42337,0 -3.89864,1.829742 -13.50195,16.75 -5.92956,9.2125 -11.44249,17.767045 -12.25196,19.009765 -1.45031,2.22654 -1.37801,2.21924 4.9336,-0.5 3.52279,-1.51772 18.41896,-7.934765 33.10351,-14.259765 14.68455,-6.325 26.58317,-11.870919 26.44141,-12.324219 -0.14175,-0.453299 -6.77102,-3.623848 -14.73242,-7.046875 z m 75.14454,3.71875 -3.07227,1.271484 c -1.6897,0.700223 -6.81802,2.801743 -11.39648,4.667969 -6.4481,2.62831 -7.91322,3.569968 -6.5,4.179687 1.00346,0.432931 13.29921,5.696366 27.32421,11.697266 14.025,6.0009 25.721499,10.945132 25.990239,10.986332 0.26875,0.0412 -6.898675,-7.323718 -15.927739,-16.365238 z m -159.08399,2.841797 -14.78515,14.761719 -14.78516,14.759762 25.25586,5.65625 c 13.8906,3.11022 25.99478,5.69976 26.89844,5.75586 4.17118,0.25878 2.43512,-3.60023 -9.875,-21.968748 z m 131.74414,14.917969 c -0.53501,0.01738 -0.8791,0.164506 -1.15234,0.398437 -0.90884,0.77809 -2.35482,1.662824 -3.21485,1.964844 -1.17721,0.4134 -2.23035,4.714864 -4.25781,17.402341 -2.96712,18.56768 -3.14994,20.94291 -1.67969,21.85157 0.55,0.33991 1,1.45973 1,2.48828 0,1.45561 1.18852,2.11696 5.35743,2.98242 2.94579,0.61155 10.25829,2.17917 16.25,3.48437 5.99171,1.30521 11.10008,2.41179 11.35351,2.45899 0.25344,0.0473 7.45344,-6.84138 16,-15.3086 l 15.539064,-15.39453 -27.347654,-11.671872 c -19.59596,-8.363445 -25.52929,-10.731573 -27.84766,-10.65625 z m -15.32031,1.117187 c -0.9955,0 -66.77925,27.774315 -67.90039,28.667965 -1.04174,0.83036 2.13997,1.64073 26.48828,6.73633 14.26061,2.98446 26.64619,5.46472 27.52344,5.51172 0.87726,0.047 2.4088,-0.81602 3.40429,-1.91601 0.99549,-1.1 2.58097,-2 3.52149,-2 1.43874,0 2.13394,-2.6573 4.38672,-16.75 1.47266,-9.2125 2.91448,-17.537505 3.20312,-18.500005 0.28864,-0.9625 0.006,-1.75 -0.62695,-1.75 z m -140.15234,23.193355 c 5.87299,6.61746 12.09501,14.17334 19.62695,19.42579 17.24216,-7.19444 23.52991,-9.96423 23.25195,-10.24219 -0.18793,-0.18794 -9.91164,-2.32972 -21.60937,-4.76172 z m 72.74023,15.01368 c -0.17722,-0.005 -0.30966,-6e-5 -0.39453,0.0176 -0.79567,0.16533 8.5449,14.53455 23.41797,36.0254 13.60773,19.66249 25.06076,35.75 25.45117,35.75 1.94323,0 3.04122,-4.50459 6.90625,-28.31836 l 4.19141,-25.81836 -2.42774,-2.25 c -1.33531,-1.23753 -2.61751,-2.81544 -2.84766,-3.50586 -0.40182,-1.20551 -48.80302,-11.75523 -54.29687,-11.90039 z m -24.86914,1.16211 c -0.22029,-0.2203 -5.44591,1.7024 -11.61328,4.27148 l -11.21289,4.67188 c 3.96295,4.01278 6.57278,7.46078 11.21289,9.92968 1.76372,-1.94337 11.9648,-18.52152 11.61328,-18.87304 z m 17.4375,4.98242 -4.91016,0.0742 -4.9082,0.0742 -7.09961,10.22656 -7.10156,10.22461 31.6582,31.02539 31.6582,31.02344 5.23633,-5.16993 c 2.8793,-2.84353 4.94127,-5.65612 4.58203,-6.25 -0.35925,-0.59387 -11.5578,-16.86331 -24.88476,-36.15429 z m 81.35937,8.72851 c -4.89758,-0.0387 -5.68606,1.92079 -9.125,22.65821 -1.80248,10.86929 -3.29947,20.43211 -3.32617,21.25195 -0.0267,0.81985 8.94637,-7.49378 19.93946,-18.47656 l 19.98828,-19.96875 -12.73828,-2.72461 c -7.00559,-1.49837 -13.63829,-2.73124 -14.73829,-2.74024 z"
       transform="translate(338.32834,19.971628)"
       id="path848"
       inkscape:connector-curvature="0" />
  </g>
</svg>
