<?xml version="1.0" encoding="UTF-8" standalone="no"?>
<!-- Created with Inkscape (http://www.inkscape.org/) -->

<svg
   xmlns:dc="http://purl.org/dc/elements/1.1/"
   xmlns:cc="http://creativecommons.org/ns#"
   xmlns:rdf="http://www.w3.org/1999/02/22-rdf-syntax-ns#"
   xmlns:svg="http://www.w3.org/2000/svg"
   xmlns="http://www.w3.org/2000/svg"
   xmlns:sodipodi="http://sodipodi.sourceforge.net/DTD/sodipodi-0.dtd"
   xmlns:inkscape="http://www.inkscape.org/namespaces/inkscape"
   version="1.1"
   id="svg2"
   width="30"
   height="30"
   viewBox="0 0 30 30"
   sodipodi:docname="nuxtjs.svg"
   inkscape:version="0.92.5 (2060ec1f9f, 2020-04-08)">
  <metadata
     id="metadata8">
    <rdf:RDF>
      <cc:Work
         rdf:about="">
        <dc:format>image/svg+xml</dc:format>
        <dc:type
           rdf:resource="http://purl.org/dc/dcmitype/StillImage" />
        <dc:title></dc:title>
      </cc:Work>
    </rdf:RDF>
  </metadata>
  <defs
     id="defs6" />
  <sodipodi:namedview
     pagecolor="#ffffff"
     bordercolor="#666666"
     borderopacity="1"
     objecttolerance="10"
     gridtolerance="10"
     guidetolerance="10"
     inkscape:pageopacity="0"
     inkscape:pageshadow="2"
     inkscape:window-width="1366"
     inkscape:window-height="715"
     id="namedview4"
     showgrid="false"
     inkscape:zoom="6.2676884"
     inkscape:cx="2.5590806"
     inkscape:cy="2.6581619"
     inkscape:window-x="-8"
     inkscape:window-y="-8"
     inkscape:window-maximized="1"
     inkscape:current-layer="svg2" />
  <flowRoot
     xml:space="preserve"
     id="flowRoot842"
     style="font-size:40px;line-height:1;font-family:sans-serif;letter-spacing:0px;word-spacing:0px"
     transform="translate(0,-183)"><flowRegion
       id="flowRegion844"><rect
         id="rect846"
         width="55.841961"
         height="54.086926"
         x="150.61374"
         y="81.37252" /></flowRegion><flowPara
       id="flowPara848" /></flowRoot>  <g
     id="g836"
     transform="matrix(1.0155953,0,0,1.0155953,76.287609,-1.1897739)"
     style="stroke-width:0.98464417">
    <path
       style="fill:#000000;stroke-width:0.98464417"
       d="m -73.319638,25.615258 c -1.080693,-0.22708 -1.755854,-1.370509 -1.398972,-2.369248 0.05077,-0.142067 0.97668,-1.794701 2.057587,-3.672519 1.080908,-1.877818 3.142504,-5.467973 4.581325,-7.978122 2.788078,-4.8640446 2.973332,-5.1391726 3.572395,-5.3054978 0.35669,-0.099033 0.84414,-0.099204 1.199916,-4.278e-4 0.568712,0.1579033 0.794659,0.4769775 2.747352,3.8796986 1.354848,2.360931 1.878938,3.214678 1.983102,3.230493 0.116811,0.01773 0.312358,-0.275443 1.117748,-1.67581 1.070191,-1.8607867 1.315683,-2.1601634 1.918046,-2.3390457 0.452129,-0.134268 0.644751,-0.134268 1.096881,0 0.585656,0.1739212 0.859512,0.494095 1.738302,2.0323067 0.727149,1.272782 2.573643,4.488232 5.548257,9.661633 1.274744,2.217014 1.376014,2.476125 1.227369,3.140344 -0.114897,0.513416 -0.446015,0.941945 -0.935445,1.210644 l -0.389675,0.213933 -5.449584,0.01997 c -3.059272,0.01121 -5.477017,-0.0075 -5.512127,-0.04257 -0.03585,-0.03585 0.27039,-0.637855 0.717542,-1.410539 l 0.780086,-1.34799 3.554451,-0.03566 c 3.143929,-0.03154 3.556921,-0.04849 3.575838,-0.146803 0.01176,-0.06113 -0.70528,-1.376821 -1.593427,-2.923753 -0.888148,-1.546933 -2.079131,-3.622877 -2.646629,-4.613209 -0.723728,-1.262967 -1.068691,-1.800604 -1.155318,-1.800604 -0.14835,0 -0.03678,-0.187393 -3.969721,6.667583 -0.697577,1.215853 -1.396828,2.403182 -1.553892,2.638509 -0.856771,1.283696 -1.94463,2.158364 -3.255407,2.617435 -1.001926,0.350904 -1.155398,0.361874 -5.348649,0.382355 -2.176769,0.01063 -4.070078,-0.0043 -4.207351,-0.03311 z m 8.09256,-2.896349 c 0.273863,-0.05801 0.668493,-0.18892 0.876954,-0.290911 0.499764,-0.244511 1.150951,-0.855678 1.53876,-1.444188 0.550223,-0.83498 2.541648,-4.36007 2.541648,-4.499059 0,-0.07372 -0.778557,-1.492799 -1.730127,-3.153508 -1.5163,-2.646297 -1.751075,-3.019473 -1.899629,-3.019473 -0.139105,0 -0.239684,0.12149 -0.560848,0.677455 -1.586874,2.747033 -6.438118,11.206256 -6.536052,11.397063 -0.228597,0.445378 -0.256818,0.440715 2.659411,0.439333 2.029514,-9.62e-4 2.722983,-0.02476 3.109883,-0.106712 z"
       id="path840"
       inkscape:connector-curvature="0" />
  </g>
</svg>
