<?xml version="1.0" encoding="UTF-8" standalone="no"?>
<!-- Created with Inkscape (http://www.inkscape.org/) -->

<svg
   xmlns:dc="http://purl.org/dc/elements/1.1/"
   xmlns:cc="http://creativecommons.org/ns#"
   xmlns:rdf="http://www.w3.org/1999/02/22-rdf-syntax-ns#"
   xmlns:svg="http://www.w3.org/2000/svg"
   xmlns="http://www.w3.org/2000/svg"
   xmlns:sodipodi="http://sodipodi.sourceforge.net/DTD/sodipodi-0.dtd"
   xmlns:inkscape="http://www.inkscape.org/namespaces/inkscape"
   version="1.1"
   id="svg2"
   width="2000"
   height="2000"
   viewBox="0 0 2000 2000"
   sodipodi:docname="sketchfab1.svg"
   inkscape:version="0.92.5 (2060ec1f9f, 2020-04-08)">
  <metadata
     id="metadata8">
    <rdf:RDF>
      <cc:Work
         rdf:about="">
        <dc:format>image/svg+xml</dc:format>
        <dc:type
           rdf:resource="http://purl.org/dc/dcmitype/StillImage" />
        <dc:title></dc:title>
      </cc:Work>
    </rdf:RDF>
  </metadata>
  <defs
     id="defs6" />
  <sodipodi:namedview
     pagecolor="#ffffff"
     bordercolor="#666666"
     borderopacity="1"
     objecttolerance="10"
     gridtolerance="10"
     guidetolerance="10"
     inkscape:pageopacity="0"
     inkscape:pageshadow="2"
     inkscape:window-width="1366"
     inkscape:window-height="715"
     id="namedview4"
     showgrid="false"
     inkscape:zoom="0.118"
     inkscape:cx="1406.7797"
     inkscape:cy="1127.1187"
     inkscape:window-x="-8"
     inkscape:window-y="-8"
     inkscape:window-maximized="1"
     inkscape:current-layer="svg2" />
  <path
     inkscape:connector-curvature="0"
     id="path819"
     d="M 951.0994,1998.8779 C 787.4776,1991.2951 627.1196,1942.6731 485.6397,1857.7462 281.8533,1735.4183 127.4439,1543.5441 52.0786,1318.9889 -36.2264,1055.8792 -11.2126,765.27634 120.5515,523.48885 198.5402,380.37961 308.812,259.38715 443.6397,168.99008 608.9767,58.137676 800.4112,0.001974 1000.0994,0.001974 c 192.7959,0 378.4042,54.350902 540.3598,158.231106 83.1832,53.3548 162.1569,122.94707 226.5086,199.60127 118.5982,141.27144 196.3446,314.58703 222.5663,496.1545 6.7114,46.47169 9.3184,79.37019 10.2225,129.00002 3.7402,205.30493 -54.4283,403.08483 -168.6584,573.45973 -73.1743,109.1398 -165.3993,201.3648 -274.5391,274.5391 -178.9101,119.9527 -388.1113,177.9629 -605.4597,167.8902 z m 338.5,-530.2309 210,-121.2501 0.252,-249.204 c 0.2167,-214.38351 0.054,-249.20405 -1.1639,-249.20405 -1.6175,0 -423.1638,227.47855 -425.8381,229.79455 -1.6582,1.4359 -1.75,14.9585 -1.75,257.6938 0,140.8981 0.2914,256.4698 0.6477,256.826 0.805,0.8051 -26.6705,16.5268 217.8523,-124.6562 z m -376.5,-133.0031 c 0,-243.8465 -0.092,-257.4245 -1.75,-258.8605 -2.6884,-2.3281 -426.1967,-230.79455 -427.8239,-230.79455 -1.2368,0 -1.396,33.78143 -1.178,250.10735 l 0.2519,250.1073 213.5,123.3317 c 117.425,67.8324 214.2875,123.3591 215.25,123.3927 1.6623,0.058 1.75,-12.8369 1.75,-257.284 z m 330.2818,-511.27575 c 138.72,-73.49139 252.8349,-134.19915 253.5886,-134.90613 1.1437,-1.07279 0.7302,-1.70107 -2.5,-3.79816 -2.1287,-1.382 -115.9204,-67.22098 -252.8704,-146.30883 -146.7706,-84.75922 -250.0264,-143.8047 -251.5,-143.81704 -1.5273,-0.0128 -100.7402,56.72306 -255,145.82422 -138.875,80.21484 -252.695,146.0285 -252.9333,146.25257 -0.2383,0.22407 0.1107,0.95146 0.7757,1.61642 1.6908,1.69081 505.3659,268.68577 506.9395,268.72537 0.705,0.018 114.7799,-60.09704 253.4999,-133.58842 z"
     style="fill:#1caad9;fill-opacity:1" />
</svg>
